<svg width="395" height="83" viewBox="0 0 395 83" fill="none" xmlns="http://www.w3.org/2000/svg">
<path d="M87.6715 30.6015V33.1088L91.6265 33.517C91.812 47.5429 91.987 55.2132 91.987 59.5386C91.987 62.9842 91.7378 65.2741 90.9532 66.6576L90.0201 65.5179C88.5781 63.7634 87.3641 62.9206 85.7577 62.9206C84.6232 62.9206 83.6318 63.3287 82.9638 64.0496C81.9247 65.1681 82.1103 66.9068 83.2607 67.9086C84.374 68.8734 85.869 69.3186 87.6662 69.3186C91.9075 69.3186 95.6609 67.0658 97.49 63.0425C98.9638 60.0263 99.5628 55.897 99.5628 49.4936C99.5628 49.4936 99.5628 37.148 99.6371 33.4746L103.189 33.1141V30.6068H87.6715V30.6015Z" fill="black"/>
<path d="M126.07 58.6004C125.402 58.6004 125.015 58.1551 125.015 57.2381V46.7796C125.015 40.5299 122.651 38.0015 116.666 38.0015C110.68 38.0015 106.948 40.1483 106.116 43.4242C105.888 44.32 106.057 45.3007 106.699 45.9686C107.261 46.5517 108.072 46.8485 109.09 46.8485C110.887 46.8485 112.398 45.5975 112.514 42.4965L112.727 40.4716C113.182 40.4239 113.601 40.408 114.01 40.408C116.989 40.408 117.789 41.6272 117.789 45.7618V47.2885C116.469 47.6383 115.186 47.9882 114.243 48.2691C107.049 50.3523 105.209 52.69 105.209 56.0083C105.209 59.8461 107.717 61.9717 111.327 61.9717C114.513 61.9717 115.987 60.6942 118.033 58.5474C118.701 60.6995 120.377 61.9346 123.107 61.9346C125.837 61.9346 127.603 60.9593 128.721 58.4096L127.486 57.5826C126.94 58.3566 126.558 58.611 126.07 58.611V58.6004ZM114.905 58.1869C113.331 58.1869 112.101 57.1056 112.101 54.7679C112.101 52.5734 113.474 51.0043 115.589 50.1085C116.157 49.8488 116.925 49.5784 117.784 49.3081V56.8882C116.448 57.8477 115.748 58.1816 114.9 58.1816L114.905 58.1869Z" fill="black"/>
<path d="M142.928 40.3974C143.231 40.3974 143.517 40.4133 143.803 40.4398L144.105 42.7934C144.333 46.0799 145.844 47.2143 147.689 47.2143C148.803 47.2143 149.603 46.875 150.165 46.1541C150.727 45.4332 150.86 44.4737 150.616 43.5991C149.73 40.4292 146.512 37.9856 142.117 37.9856C135.151 37.9856 129.516 42.4064 129.516 50.029C129.516 57.6515 134.775 61.9452 141.131 61.9452C145.553 61.9452 148.909 60.1376 150.706 56.3316L149.084 54.8951C147.737 56.4536 146.067 57.4925 143.83 57.4925C139.917 57.4925 137.33 54.5453 137.33 49.1703C137.33 42.8623 140.256 40.3868 142.934 40.3868V40.3974H142.928Z" fill="black"/>
<path d="M169.792 45.2636L173.953 41.3675L178.126 40.7844V38.7065H167.236V40.7844L170.422 41.3357L162.868 48.7197L163.053 27.8504L162.301 27.3787L152.535 29.4778V31.4497L155.43 31.9162C155.43 31.9162 155.409 56.2309 155.366 58.5315L152.768 59.0881V61.2614H165.423V59.0881L162.926 58.5951C162.889 56.4801 162.868 53.8085 162.863 51.7518L164.617 50.1085L169.845 61.2614H179.371V59.0881L176.376 58.3513L169.792 45.2689V45.2636Z" fill="black"/>
<path d="M191.305 30.4796C191.501 30.1563 191.761 29.8064 192.079 29.4725L192.472 30.0185C193.76 32.372 195.09 33.3421 196.66 33.3421C197.805 33.3421 198.69 32.9392 199.263 32.2872C200.233 31.174 200.063 29.4937 199.04 28.4229C197.975 27.3097 196.241 26.8963 194.417 26.8963C191.745 26.8963 189.063 27.7179 186.619 29.9761C184.816 31.6564 183.316 34.0471 182.743 38.7171L179.626 39.1093V41.887H182.637C182.637 41.887 182.611 56.1726 182.563 58.5421L179.976 59.0669V61.2402H193.739V59.0669L190.144 58.3036C190.096 56.0189 190.075 41.8923 190.075 41.8923H194.963V38.6906H189.959C189.842 34.8899 190.187 32.3084 191.305 30.469V30.4796Z" fill="black"/>
<path d="M212.209 37.9962C209.861 37.9962 207.194 40.0264 205.916 44.0762L205.503 38.4944L204.702 37.9962L195.499 41.0971V42.9312L198.357 43.35C198.452 45.2159 198.494 46.1594 198.494 48.725C198.494 48.725 198.473 56.2627 198.431 58.5474L195.87 59.0828V61.2561H209.691V59.0828L205.985 58.3089C205.943 56.0719 205.927 48.3486 205.927 48.3486C206.447 46.064 207.682 44.0073 209.039 42.6874L209.341 43.0849C210.449 44.5586 211.536 45.2477 212.946 45.2477C214.357 45.2477 215.364 44.5321 215.899 43.2175C216.371 42.0619 216.281 40.7155 215.592 39.6765C214.85 38.5528 213.625 38.0015 212.204 38.0015L212.209 37.9962Z" fill="black"/>
<path d="M240.556 38.7542L239.819 38.2559L230.536 39.7719V41.5742L233.075 42.1626L232.927 55.3245C231.676 56.5437 230.186 57.4554 228.903 57.4554C227.313 57.4554 226.369 56.5119 226.369 53.607L226.602 38.7595L225.865 38.2612L216.354 39.6076V41.5742L219.026 42.1732L218.867 53.5646C218.788 59.7242 221.455 61.9611 225.457 61.9611C228.453 61.9611 230.997 60.4769 233.028 57.853L233.303 61.765L242.867 61.2932V59.1199L240.423 58.6057L240.561 38.7595H240.556V38.7542Z" fill="black"/>
<path d="M254.6 38.4944L253.799 37.9962L244.028 41.0971V42.9312L246.912 43.35C247.008 45.2159 247.029 56.2574 246.987 58.5368L244.474 59.0775V61.2508H256.853V59.0775L254.52 58.5951C254.478 56.3051 254.594 38.4891 254.594 38.4891L254.6 38.4944Z" fill="black"/>
<path d="M250.672 34.54C252.867 34.54 254.627 32.9922 254.627 30.8295C254.627 28.6667 252.872 27.1189 250.672 27.1189C248.472 27.1189 246.717 28.6561 246.717 30.8295C246.717 33.0028 248.472 34.54 250.672 34.54Z" fill="black"/>
<path d="M270.372 58.1445C268.989 58.1445 267.997 57.1533 267.997 54.964V41.9028H272.885V38.7012H268.018L268.098 32.1547H263.337L260.973 38.68L257.548 39.1199V41.8975H260.559C260.559 41.8975 260.511 53.8456 260.511 55.4729C260.511 60.074 262.987 61.9558 267.218 61.9558C270.627 61.9558 272.811 60.5988 274.041 58.2293L272.901 57.1056C271.989 57.7894 271.226 58.1445 270.367 58.1445H270.372Z" fill="black"/>
<path d="M303.676 46.1488H299.53V48.6561L303.74 49.2021C303.787 51.9002 303.814 59.3001 303.814 59.3001C303.268 59.4167 302.701 59.4803 302.07 59.4803C296.911 59.4803 292.797 55.1337 292.797 45.8679C292.797 36.6021 297.097 32.3773 302.149 32.3773C303.268 32.3773 304.365 32.584 305.5 33.0664L306.841 39.1464H310.462L310.276 31.879C307.562 30.4425 304.302 29.7428 301.237 29.7428C290.655 29.7428 284.532 36.0561 284.532 45.8679C284.532 55.6797 291.08 62.1254 300.681 62.1254C304.821 62.1254 307.997 61.2561 311.247 59.4061C311.247 59.4061 311.273 51.7677 311.326 48.9847L313.749 48.6561V46.1488H303.676Z" fill="black"/>
<path d="M339.048 38.7542L338.311 38.2559L329.028 39.7719V41.5742L331.568 42.1626L331.419 55.3245C330.168 56.5437 328.678 57.4554 327.395 57.4554C325.805 57.4554 324.861 56.5119 324.861 53.607L325.095 38.7595L324.358 38.2612L314.847 39.6076V41.5742L317.519 42.1732L317.36 53.5646C317.28 59.7242 319.947 61.9611 323.949 61.9611C326.945 61.9611 329.489 60.4769 331.52 57.853L331.796 61.765L341.36 61.2932V59.1199L338.916 58.6057L339.053 38.7595L339.048 38.7542Z" fill="black"/>
<path d="M357.507 38.7012V40.7367L360.598 41.288L356.145 53.8986L351.591 41.2827L354.74 40.7155V38.7012H341.449V40.7367L343.644 41.1183L352.954 63.0319L352.943 63.0584C352.201 65.1734 351.093 67.0181 349.773 68.4069L349.465 67.9563C348.203 66.1275 346.698 65.7936 345.452 65.7936C344.577 65.7936 343.755 66.0109 343.087 66.4562C341.444 67.5534 341.396 69.8911 342.928 71.1368C343.819 71.863 345.07 72.3136 346.417 72.3136C350.748 72.3136 352.853 69.1384 355.154 63.1644L363.604 41.2191L366.319 40.7473V38.7118H357.513V38.7012H357.507Z" fill="black"/>
<path d="M379.567 46.9757L377.293 46.329C374.085 45.3643 373.391 44.4685 373.391 43.1804C373.391 41.4894 374.785 40.5671 376.868 40.5671C377.923 40.5671 378.703 40.6784 379.434 40.9275L380.378 44.9879H384.126L384.45 39.8727C382.037 38.6588 379.811 37.9909 377.054 37.9909C370.766 37.9909 367.315 41.3198 367.315 45.6187C367.315 49.1279 369.351 51.5185 372.961 52.5787L375.479 53.3049C378.554 54.2113 379.413 55.1708 379.413 56.6338C379.413 58.5103 377.934 59.3849 375.252 59.3849C373.969 59.3849 372.866 59.1517 371.758 58.7064L370.978 54.0894H367.225L367.108 59.8143C369.563 61.2508 372.177 61.9558 375.225 61.9558C381.804 61.9558 385.775 59.1199 385.775 54.1901C385.775 50.7234 384.004 48.2956 379.572 46.9757H379.567Z" fill="black"/>
<path d="M71.597 51.2747C72.3498 52.1758 72.3869 52.8967 71.703 53.8562C71.5758 54.0364 71.5175 54.1848 71.597 54.3863C71.7507 54.7679 71.6924 55.1072 71.3531 55.3616C71.0774 55.5683 71.0933 55.7963 71.2471 56.0613C71.3743 56.2786 71.475 56.5437 71.3743 56.761C71.0562 57.4554 70.7964 58.1445 71.035 58.9237C71.0562 58.998 70.9184 59.2047 70.8601 59.2047C70.0436 59.1888 70.2981 59.6818 70.3882 60.127C70.4996 60.6677 70.3617 61.1289 69.8952 61.484C69.752 61.5953 69.3862 61.7385 69.6301 61.9664C70.0807 62.3852 69.7626 62.6767 69.5241 62.9524C69.2961 63.2121 69.1954 63.4824 69.1954 63.8111C69.1954 64.4207 68.9515 64.9508 68.6493 65.4543C68.2835 66.0586 67.9813 66.6364 67.7905 67.3626C67.6102 68.0464 67.5731 68.6613 67.589 69.3292C67.5996 69.6632 67.536 70.0607 67.1755 70.1986C66.428 70.4848 66.2053 71.1686 65.8978 71.7835C65.8183 71.9425 65.7653 72.1493 65.601 72.1546C64.8216 72.1864 64.5088 72.9709 63.8568 73.1988C63.5387 73.3101 63.6394 73.607 63.6447 73.8296C63.6606 74.2802 63.5546 74.5929 63.1199 74.8474C62.6745 75.1124 62.4572 75.6213 62.261 76.0931C62.0808 76.533 61.8104 76.6655 61.4128 76.4482C60.978 76.2097 60.7713 76.3316 60.7342 76.7981C60.6652 77.7363 60.2252 78.2982 59.2285 78.3247C59.043 78.3247 58.9051 78.4413 58.7938 78.5738C58.0516 79.4644 57.0231 79.6181 55.9628 79.6287C55.5705 79.6287 55.2948 79.6658 55.2047 80.0899C55.0562 80.8002 54.2345 80.5563 53.9058 81.0069C53.3916 81.7172 52.5327 80.9804 51.9177 81.537C51.2233 82.1731 50.5022 81.6165 49.7547 81.4045C48.6997 81.1076 47.5864 80.7206 46.4784 81.3408C46.2504 81.4681 45.9217 81.5317 45.7733 81.2136C45.5718 80.7896 45.328 80.8638 45.0258 81.0599C44.6282 81.3196 44.1722 81.4151 43.7163 81.4893C43.2657 81.5582 42.7514 81.5476 42.5235 81.1394C42.1895 80.5351 41.6752 80.5669 41.214 80.7048C40.387 80.9433 39.7879 80.445 39.21 80.1058C38.8495 79.8937 38.542 79.7347 38.1709 79.793C37.2909 79.9308 37.4817 79.0668 37.1636 78.701C36.994 78.5049 37.206 78.0013 37.5453 77.7787C38.0119 77.4713 38.4678 77.1532 38.8177 76.7079C38.9184 76.5807 39.0616 76.533 39.2047 76.5436C40.2438 76.6443 40.6626 75.8757 41.0602 75.1601C41.373 74.5929 41.7335 74.1318 42.3008 73.7925C42.99 73.3737 43.4724 72.8013 43.43 71.9001C43.3876 71.0732 43.5467 70.347 44.3366 69.8169C44.8349 69.483 44.9569 68.8362 45.0311 68.2532C45.0894 67.8026 45.2484 67.4156 45.5347 67.0658C46.0861 66.382 46.4678 65.6399 46.2557 64.7175C46.2186 64.5532 46.2345 64.3836 46.3512 64.2351C46.7647 63.7157 46.7488 63.1061 46.6905 62.4965C46.6533 62.0936 46.717 61.7915 47.0457 61.4628C47.8886 60.6094 47.6765 59.5174 47.4857 58.4944C47.2948 57.4713 46.9767 56.4695 46.7541 55.4517C46.5791 54.6619 46.5314 53.8668 46.7912 53.0717C46.982 52.4886 47.0244 51.8366 46.4943 51.4549C46.0808 51.1634 46.0861 50.84 46.0967 50.4637C46.1338 49.4671 46.208 48.4706 46.2292 47.474C46.2504 46.3555 45.9005 45.8838 44.819 45.7035C44.2253 45.6028 44.1404 45.3749 44.2518 44.8236C44.5274 43.4507 44.0821 42.8729 42.7037 42.8252C42.0834 42.804 41.8131 42.6768 41.7812 41.9718C41.7176 40.689 41.0655 40.1006 39.8568 40.0211C38.3936 39.9257 37.8846 39.5705 37.5188 38.0916C37.3386 37.3601 37.0046 37.1374 36.3207 37.2381C35.0589 37.4237 34.0728 37.0738 33.3518 35.9235C32.9065 35.2185 32.1007 34.9217 31.263 34.8899C30.3406 34.8528 29.4128 34.8687 28.4851 34.8634C27.8913 34.8634 27.3452 34.9058 26.8151 34.4022C26.2955 33.9039 25.6275 34.1478 25.108 34.6196C24.8429 34.8581 24.5301 35.2556 24.2173 34.8157C23.9364 34.4234 24.2014 34.0842 24.6415 33.9251C24.9383 33.8191 24.9967 33.6495 24.8588 33.3633C24.6202 32.865 24.7581 32.5469 25.3413 32.5363C25.7707 32.5257 25.7866 32.2501 25.7813 31.9373C25.7813 31.4179 25.7495 30.9143 26.4546 30.7553C26.7992 30.6758 26.656 30.4107 26.497 30.1881C25.7018 29.1014 25.7124 29.0537 26.8734 28.4494C27.1544 28.301 27.3134 28.1208 27.1968 27.8186C27.0271 27.3787 27.2551 27.2779 27.605 27.0765C28.0874 26.8009 28.3737 26.2496 28.9993 26.1065C29.2697 26.0428 29.1583 25.6983 29.0152 25.481C28.9145 25.3325 28.8031 25.0728 28.9834 25.0463C29.6938 24.935 29.4075 24.4049 29.4181 24.0497C29.4287 23.578 29.5454 23.2811 30.0755 23.3288C30.7806 23.3924 30.8654 22.9684 30.7223 22.4489C30.5845 21.9506 30.7223 21.7916 31.2259 21.8287C31.9947 21.8817 32.1749 21.288 32.3446 20.7208C32.4135 20.4929 32.3605 20.1961 32.6785 20.1431C33.267 20.0423 33.9138 20.0529 34.1365 19.3108C34.8575 19.4539 35.1066 18.8974 35.4512 18.4574C35.5785 18.2931 35.817 18.362 36.0026 18.4203C36.485 18.5793 36.8402 18.3779 37.0099 17.9485C37.2007 17.4555 37.5718 17.2647 38.0225 17.1004C38.4307 16.952 38.823 16.7452 39.1994 16.5279C39.4804 16.3636 39.6872 16.0296 39.9946 16.5279C40.1219 16.7346 40.3498 16.5597 40.4771 16.4007C40.705 16.1197 40.9383 15.8335 41.1345 15.5314C41.4101 15.0967 41.7123 15.0066 42.0516 15.4253C42.3856 15.8335 42.6825 15.7487 43.1968 15.6692C44.1351 15.5261 45.0629 15.0331 46.1073 15.42C46.7647 15.6639 47.5122 15.7328 48.2544 15.6321C48.4824 15.6003 48.8482 15.648 48.8959 16.0667C48.9595 16.6074 49.3147 16.6233 49.6858 16.406C50.3167 16.0455 50.8203 15.966 51.1172 16.8035C51.2179 17.0845 51.4406 17.0686 51.6421 16.8778C51.9867 16.5491 52.2093 16.1568 52.7289 16.8194C52.9091 17.0474 53.7044 17.1163 54.2292 17.1693C54.595 17.2064 54.9184 17.3283 55.0403 17.6888C55.2365 18.256 55.5228 18.0969 55.8515 17.8425C55.9469 17.7683 56.0317 17.6782 56.1272 17.5987C56.7686 17.0368 56.9701 17.0474 57.3836 17.8213C57.6858 18.3832 57.988 18.6959 58.6242 18.2507C58.8627 18.081 59.2073 18.1181 59.3346 18.3885C59.6421 19.067 60.1669 19.0617 60.8137 19.1624C61.8952 19.3267 62.4943 20.1855 62.7116 21.235C62.8018 21.6803 62.876 21.9612 63.4114 21.8923C63.6712 21.8605 63.809 22.0354 63.7348 22.3217C63.6023 22.8359 63.8886 22.979 64.2915 22.8253C64.8959 22.5973 65.1556 22.8783 65.1662 23.3977C65.1821 24.2883 66.1788 24.5798 66.2955 25.3855C66.3008 25.428 66.4068 25.4916 66.4651 25.4916C67.1066 25.4704 67.1437 25.7831 66.9316 26.2761C66.7991 26.5888 66.8044 26.8645 67.2709 26.8486C67.5466 26.838 67.7004 27.0341 67.7057 27.2514C67.7163 27.8928 68.1563 27.9246 68.6069 27.9193C69.0788 27.9193 69.2855 28.1261 69.365 28.5925C69.5559 29.6368 69.7945 30.6758 70.0171 31.7147C70.0436 31.8472 70.1338 31.9108 70.2451 31.9744C70.4837 32.1229 70.9449 31.9851 70.9661 32.3508C71.0032 32.9604 71.2842 33.5541 71.2047 34.1425C71.1569 34.5082 71.1729 34.7309 71.4273 34.9694C71.5811 35.1125 71.6235 35.3193 71.5758 35.5101C71.4962 35.8175 71.4962 36.0296 71.8992 36.0402C72.2279 36.0508 72.2968 36.2999 72.2703 36.5596C72.2332 36.9466 72.1907 37.3336 72.09 37.7099C71.9734 38.1446 71.9734 38.5156 72.3286 38.8496C72.4293 38.945 72.5194 39.0934 72.53 39.2313C72.7315 41.0282 72.7156 42.8146 72.1695 44.5639C72.1218 44.7229 71.9522 44.8607 72.037 45.0356C72.6414 46.3025 72.1059 47.5164 71.8461 48.7303C71.7772 49.0589 71.7931 49.2551 71.9893 49.5095C72.6997 50.4319 72.6573 50.6121 71.5917 51.28L71.597 51.2747ZM49.5904 54.312C49.654 54.5082 49.5215 54.7679 49.7812 54.9004C50.5022 55.2609 51.096 55.8016 51.764 56.2415C51.9973 56.3953 52.1775 56.3794 52.2623 56.0825C52.6016 54.8474 52.9409 53.6123 53.259 52.372C53.3067 52.1917 53.3598 51.8525 52.994 51.932C52.3101 52.0804 51.8382 51.7359 51.3452 51.3595C51.0589 51.1369 50.7143 50.9301 50.4598 51.4602C50.0251 52.3666 49.8183 53.342 49.5957 54.3173H49.5904V54.312ZM50.9105 48.9052C51.202 48.9105 51.3982 48.9317 51.5095 48.7091C51.8223 48.073 52.2942 47.5482 52.7183 46.9916C52.9091 46.7425 53.1742 46.3502 52.6175 46.1117C51.5891 45.677 50.5712 45.2371 49.548 44.7918C49.2458 44.6593 49.039 44.7494 49.0655 45.078C49.1292 45.8467 48.8005 46.4297 48.2968 46.9598C48.0848 47.1878 48.0688 47.474 48.3233 47.6648C49.1292 48.2585 50.0675 48.5978 50.9105 48.9052ZM57.2458 55.0171C57.2988 54.9693 57.4207 54.911 57.4684 54.8156C57.9774 53.7979 58.3697 52.7324 58.6348 51.6192C58.6613 51.4973 58.6719 51.3542 58.5393 51.3012C57.7706 50.9937 57.2988 50.2993 56.6467 49.8435C56.3551 49.642 56.1484 49.5678 56.0052 50.0025C55.6288 51.1263 55.2418 52.25 54.8336 53.3632C54.6851 53.7661 54.8071 53.8933 55.21 53.8827C55.8992 53.8615 56.4187 54.1795 56.8004 54.7414C56.9012 54.8898 56.9966 55.0171 57.2511 55.0171H57.2458ZM42.8097 21.7757C42.831 21.5001 42.6454 21.4258 42.4386 21.4418C41.7813 21.5054 41.2776 21.1873 40.9065 20.7367C40.4029 20.1272 40.1219 20.4823 39.8621 20.9011C39.385 21.675 39.1941 22.5708 38.8389 23.3977C38.7594 23.5833 38.7594 23.7847 38.9821 23.9013C39.6235 24.2406 40.053 24.8131 40.5725 25.2901C40.9701 25.6559 41.2617 25.6877 41.4738 25.0834C41.7494 24.3042 42.0834 23.5462 42.3962 22.7829C42.5341 22.4436 42.6719 22.1044 42.8097 21.7704V21.7757ZM53.1053 68.285C53.1212 68.057 53.0205 67.9404 52.8773 67.8927C52.2093 67.6754 51.9655 67.087 51.7799 66.5304C51.5625 65.8837 51.2392 65.942 50.8044 66.2336C50.0675 66.7212 49.5162 67.405 48.8959 68.0146C48.7209 68.1842 48.6891 68.4069 48.827 68.6189C49.2405 69.2603 49.4631 69.9865 49.76 70.6756C49.935 71.0838 50.1258 71.2004 50.4969 70.84C51.2286 70.1296 51.992 69.4564 52.7342 68.7567C52.8879 68.6136 52.9993 68.4228 53.1053 68.285ZM46.3777 34.0153C45.7998 33.2784 45.5771 32.3349 45.0735 31.5345C44.9357 31.3118 44.7872 31.4232 44.66 31.5504L42.0993 34.1266C41.9138 34.3121 41.8396 34.4923 42.1471 34.6302C42.8628 34.9535 43.2551 35.5419 43.4777 36.2628C43.5997 36.6445 43.8435 36.6021 44.1033 36.4483C45.0205 35.9023 45.6302 35.0383 46.3087 34.2538C46.3512 34.2061 46.3512 34.1213 46.383 34.0153H46.3777ZM56.3975 64.4207C56.0953 64.4048 56.0423 64.5691 56.0582 64.7493C56.1112 65.4331 55.7189 65.8996 55.2524 66.2972C54.7276 66.7424 54.8336 67.0976 55.316 67.458C55.9787 67.9563 56.7156 68.3221 57.4525 68.6931C57.7653 68.8521 57.9615 68.7567 58.1364 68.5129C58.5659 67.9192 59.0854 67.4103 59.6049 66.9015C59.9283 66.5834 59.8594 66.4085 59.483 66.1964C58.5818 65.6823 57.7017 65.1257 56.8057 64.5956C56.6626 64.5108 56.4983 64.4631 56.3975 64.4207ZM65.7017 53.1565C65.6911 53.4586 65.6699 53.6653 65.8395 53.7502C66.5711 54.1053 67.1119 54.699 67.7269 55.2079C68.0078 55.4411 68.257 55.3987 68.3684 54.9852C68.6811 53.7873 69.0045 52.5999 69.3226 51.4019C69.4074 51.0945 69.2961 50.9036 68.9674 50.9566C68.2941 51.0626 67.7958 50.7287 67.3399 50.3152C67.0006 50.0131 66.7037 50.0237 66.5234 50.4266C66.1258 51.3383 65.8448 52.2924 65.7017 53.1512V53.1565ZM57.2246 25.4174V23.5992C57.2246 23.2917 57.1609 23.1274 56.8057 23.297C56.2226 23.5727 55.6553 23.5356 55.0669 23.244C54.6798 23.0585 54.3617 23.0903 54.261 23.684C54.102 24.6275 54.1709 25.5711 54.1762 26.5146C54.1762 26.7585 54.2875 26.9122 54.542 26.9864C55.2365 27.1984 55.9204 27.4317 56.6149 27.6543C57.0655 27.8027 57.2405 27.6172 57.2246 27.1613C57.2087 26.5782 57.2246 25.9951 57.2246 25.4174ZM62.6162 46.3078C62.6533 45.9527 62.6533 45.7671 62.4943 45.6664C61.8422 45.2636 61.381 44.654 60.8084 44.161C60.4267 43.8323 60.257 43.9914 60.1086 44.3412C59.658 45.3908 59.2073 46.435 58.7673 47.4899C58.6772 47.7125 58.5765 48.0094 58.9794 48.0253C59.7269 48.0518 60.2623 48.444 60.7236 48.9688C60.9992 49.2816 61.2219 49.2021 61.434 48.9211C62.0648 48.0889 62.261 47.0711 62.6162 46.3078ZM57.0443 44.0921H57.0814V42.3428C57.0814 42.0725 56.9966 41.7491 56.6997 41.9347C56.0105 42.3534 55.3902 42.099 54.7541 41.8711C54.3564 41.7279 54.1762 41.8499 54.102 42.2633C53.9164 43.2758 54.0278 44.2935 54.0225 45.3113C54.0225 45.5021 54.1444 45.6346 54.3352 45.6558C55.0721 45.7353 55.7295 46.0587 56.424 46.2813C56.8641 46.4244 57.0708 46.329 57.0549 45.8414C57.039 45.2583 57.0549 44.6752 57.0549 44.0921H57.0443ZM68.4903 60.1747C68.4903 59.9627 68.3524 59.8832 68.1828 59.8196C67.1649 59.4326 66.1417 59.051 65.1291 58.6534C64.6414 58.4626 64.5035 58.664 64.5619 59.1146C64.6467 59.7401 64.4081 60.286 64.0052 60.7048C63.544 61.1872 63.7348 61.4734 64.1855 61.7226C64.9542 62.1413 65.7918 62.4011 66.6295 62.6343C66.8521 62.6926 67.0642 62.6873 67.1649 62.4117C67.3929 61.7862 67.8753 61.3197 68.2252 60.7684C68.3418 60.5829 68.4744 60.408 68.4903 60.18V60.1747ZM38.8336 33.2307C39.0722 33.2784 39.2047 33.2307 39.2895 33.0876C39.6872 32.4197 40.1855 31.826 40.6679 31.2217C40.8694 30.9726 40.9224 30.6811 40.5354 30.5114C39.4698 30.045 38.4042 29.5838 37.3386 29.1173C37.0682 29.0007 36.888 29.0696 36.9198 29.3824C37.0046 30.1828 36.6229 30.7765 36.1351 31.3384C35.9178 31.5822 35.9602 31.8313 36.2147 32.0328C37.0099 32.6583 37.9801 32.918 38.8336 33.236V33.2307ZM63.6288 36.5172C63.4114 36.496 63.369 36.6657 63.4008 36.8459C63.5334 37.5774 63.263 38.1764 62.8124 38.7224C62.4996 39.0987 62.542 39.4168 62.9926 39.6712C63.7825 40.1271 64.6414 40.3868 65.5108 40.6201C65.7441 40.6837 65.8819 40.636 65.9827 40.4239C66.3061 39.7348 66.7673 39.1411 67.1967 38.5209C67.4247 38.1976 67.4141 37.8902 66.9369 37.7364C66.4969 37.5986 66.0728 37.4131 65.6381 37.2541C64.9807 37.0102 64.318 36.7717 63.6288 36.5172ZM52.5274 37.0367C52.5486 36.7823 52.5698 36.5862 52.3578 36.4642C51.6792 36.0667 51.1543 35.4783 50.5394 35.0012C50.269 34.7945 50.094 34.8634 49.988 35.1602C49.5745 36.3052 49.161 37.4449 48.7633 38.5952C48.6573 38.9026 48.758 39.1305 49.1451 39.0987C49.7918 39.0457 50.269 39.3797 50.6772 39.809C51.0483 40.2013 51.2657 40.0953 51.5201 39.703C52.0662 38.8708 52.2358 37.9007 52.5221 37.0314H52.5274V37.0367ZM64.6573 25.6506C64.6255 25.5923 64.5937 25.4916 64.5354 25.4227C63.8462 24.6487 62.9555 24.1505 62.0702 23.6416C61.9164 23.5515 61.7415 23.6045 61.6195 23.7582C61.1636 24.3307 60.6069 24.8025 60.0556 25.2795C59.7958 25.5022 59.6262 25.8043 60.0026 26.0641C60.9621 26.7267 61.9323 27.3627 62.8972 28.0094C63.1145 28.1526 63.3319 28.2056 63.3531 27.8504C63.3955 27.0977 63.8462 26.61 64.3763 26.1595C64.5248 26.0322 64.6626 25.8944 64.6573 25.6453V25.6506ZM34.1047 24.3678C34.1895 25.2265 33.9986 25.9739 33.4155 26.5464C32.9754 26.9758 33.1292 27.2408 33.548 27.5165C34.1153 27.8928 34.7673 28.1049 35.377 28.3858C35.9814 28.6667 36.432 28.672 36.7713 27.9458C36.9993 27.4529 37.4022 27.0288 37.7733 26.6153C38.1285 26.2125 37.9801 26.0163 37.5825 25.7831C37.1795 25.5499 36.7289 25.4545 36.3154 25.2636C35.6209 24.9456 34.9529 24.5321 34.11 24.3678H34.1047ZM51.6633 21.3357C51.6633 21.1555 51.5944 21.0071 51.4512 20.8905C50.7461 20.2915 49.9721 19.7932 49.1769 19.3267C48.9012 19.1624 48.7209 19.2896 48.5566 19.4964C48.1431 20.0052 47.6606 20.4452 47.157 20.864C46.7329 21.2191 46.7329 21.5266 47.2047 21.8393C48.0529 22.4012 48.9012 22.9631 49.7282 23.5462C50.1258 23.8271 50.3485 23.7688 50.4174 23.2864C50.5075 22.6662 50.8415 22.2157 51.3346 21.8658C51.5254 21.7333 51.6739 21.5902 51.6527 21.3357H51.6633ZM56.3604 36.7823C56.1165 36.7611 55.8992 36.7929 55.9575 37.0685C56.1059 37.8159 55.7401 38.3672 55.3266 38.9185C55.0509 39.2949 55.0828 39.6288 55.5387 39.8727C56.1006 40.1695 56.6997 40.355 57.2829 40.5936C58.0145 40.901 58.5499 40.901 58.8521 40.0317C58.9423 39.7719 59.1861 39.5599 59.3558 39.3267C60.1033 38.2824 60.0821 38.2029 58.9104 37.7523C58.5924 37.6304 58.2849 37.4926 57.9668 37.376C57.426 37.1692 56.88 36.9731 56.3604 36.7823ZM62.7859 32.5787C62.7593 32.865 62.754 33.0452 62.9078 33.1565C63.544 33.6124 64.0741 34.1849 64.6414 34.7203C64.8959 34.9641 65.145 34.9376 65.2988 34.5294C65.7282 33.4163 66.1841 32.319 66.6401 31.2164C66.7408 30.9726 66.7567 30.7712 66.4174 30.7712C65.6752 30.7712 65.1291 30.3895 64.6785 29.8488C64.4134 29.5361 64.2332 29.5944 63.9946 29.8965C63.3319 30.7182 63.1888 31.7571 62.7912 32.5787H62.7859ZM54.4148 30.5697C54.3936 30.3948 54.3299 30.2941 54.2133 30.2411C53.1 29.7587 51.9867 29.271 50.8734 28.794C50.5606 28.6614 50.4704 28.8629 50.5022 29.1226C50.5977 29.8117 50.2902 30.3365 49.8502 30.8242C49.4737 31.2376 49.5268 31.614 50.0092 31.9055C50.762 32.3614 51.605 32.6105 52.4214 32.9127C52.591 32.9763 52.7236 32.9816 52.8561 32.7908C53.3173 32.1335 53.7998 31.4974 54.2716 30.8507C54.3405 30.7553 54.383 30.6386 54.4148 30.5697ZM30.5951 31.9055C30.5951 32.16 30.5792 32.3667 30.7594 32.4409C31.4698 32.7325 31.9947 33.2943 32.6096 33.7184C32.9171 33.9304 33.1504 33.9039 33.2617 33.4958C33.5798 32.3508 33.9085 31.2058 34.2266 30.0609C34.3114 29.7587 34.1895 29.5838 33.8608 29.6103C33.2034 29.6633 32.6732 29.3771 32.212 28.9583C31.8939 28.6667 31.6501 28.7039 31.4539 29.0696C30.9715 29.9866 30.7488 30.9779 30.5898 31.9108L30.5951 31.9055ZM55.3001 74.1901C55.2948 74.2378 55.2948 74.4392 55.4645 74.5187C56.1961 74.8633 56.7845 75.4198 57.4578 75.8492C57.8024 76.0718 57.9562 75.8916 58.041 75.5948C58.3697 74.4551 58.6719 73.3048 59.0059 72.1652C59.1225 71.7676 58.9529 71.6881 58.6189 71.7146C57.9668 71.7729 57.4313 71.5132 56.9701 71.0838C56.5725 70.7074 56.3286 70.8665 56.1378 71.2799C55.7348 72.1705 55.5175 73.114 55.3001 74.1901ZM53.153 74.2537C53.2378 73.9515 53.1742 73.7872 52.8031 73.8667C52.1987 74.0045 51.7004 73.7819 51.2922 73.3525C50.8415 72.8755 50.5128 72.9762 50.2531 73.5328C49.8502 74.3968 49.6752 75.3297 49.4738 76.2521C49.4366 76.4164 49.4578 76.6019 49.6434 76.6973C50.3379 77.0525 50.937 77.5508 51.5572 78.0172C51.8382 78.2293 52.0662 78.1763 52.1669 77.8264C52.5062 76.639 52.8296 75.4464 53.1583 74.259H53.153V74.2537ZM48.4347 40.7897C48.4559 40.4504 48.2597 40.3391 48.0582 40.249C47.0616 39.8143 46.0596 39.3903 45.0576 38.9609C44.8084 38.8549 44.6123 38.839 44.6335 39.1835C44.6706 39.9204 44.3313 40.4822 43.8754 41.0123C43.5255 41.4152 43.5891 41.7226 44.0768 41.9983C44.5009 42.2368 44.925 42.4647 45.381 42.6397C46.2769 42.9842 46.9979 42.7828 47.544 42.0248C47.8568 41.5954 48.1643 41.1713 48.44 40.7844L48.4347 40.7897ZM52.8137 63.3817C53.0576 63.3923 53.1901 63.3711 53.2749 63.2121C53.6726 62.4859 54.208 61.8498 54.7116 61.1978C54.9184 60.9274 54.7912 60.7684 54.5102 60.6465C53.487 60.2012 52.4638 59.7507 51.4406 59.3001C51.1013 59.1517 50.8893 59.1782 50.9105 59.6341C50.9423 60.355 50.6242 60.9434 50.1311 61.4416C49.8873 61.6908 49.9032 61.8869 50.147 62.1148C50.9264 62.8357 51.9761 62.9736 52.8031 63.3764H52.8137V63.3817ZM66.147 66.6099C66.0622 66.5198 66.0145 66.4191 65.9403 66.3873C65.2139 66.0957 64.8959 65.4808 64.6785 64.7917C64.5407 64.3571 64.2809 64.3518 63.9575 64.5691C63.1623 65.0992 62.489 65.7565 61.8952 66.4986C61.7468 66.6841 61.6831 66.9015 61.8263 67.1029C62.2557 67.7072 62.4254 68.4175 62.7116 69.0801C62.8866 69.4883 63.088 69.6208 63.4538 69.2709C64.2544 68.497 65.0708 67.739 65.8713 66.9704C65.9721 66.875 66.041 66.7477 66.1417 66.6152L66.147 66.6099ZM44.1881 75.2131C44.1987 75.4517 44.1457 75.6478 44.3048 75.7591C44.9569 76.2203 45.6036 76.6814 46.2769 77.1108C46.4678 77.2327 46.7382 77.3016 46.8389 76.9253C47.1623 75.7591 47.5175 74.6035 47.8356 73.4373C47.8939 73.2253 47.9628 72.9126 47.5175 72.9921C46.8548 73.114 46.3087 72.8066 45.8687 72.3984C45.4181 71.9796 45.1371 72.1864 44.9675 72.5733C44.5805 73.4374 44.3737 74.365 44.1828 75.2184H44.1881V75.2131ZM67.0218 46.1488C66.9953 46.4085 67.0059 46.5676 67.1755 46.6842C67.8382 47.1348 68.4956 47.5906 69.153 48.0465C69.4287 48.2373 69.5877 48.1631 69.6831 47.8398C70.0224 46.6471 70.3723 45.4597 70.7222 44.2723C70.7911 44.0444 70.754 43.8058 70.4996 43.8748C69.6937 44.0815 69.1477 43.6521 68.5857 43.2122C68.2676 42.963 68.0503 43.0637 67.8859 43.3871C67.4194 44.2829 67.2603 45.2742 67.0218 46.1541V46.1488ZM59.4194 32.8968H59.43V31.0733C59.43 30.8507 59.4194 30.5856 59.0695 30.75C58.428 31.0468 57.8077 30.9832 57.1769 30.6917C56.811 30.522 56.5619 30.6705 56.4983 31.0786C56.3498 32.0434 56.2756 33.0028 56.4558 33.9729C56.5036 34.2379 56.5725 34.3969 56.8588 34.4817C57.5108 34.6673 58.1417 34.9111 58.7885 35.1125C59.1967 35.2397 59.4459 35.139 59.4247 34.6408C59.4035 34.0577 59.4247 33.4746 59.4247 32.8915L59.4194 32.8968ZM58.5234 58.7859C58.5128 59.051 58.5181 59.2153 58.6454 59.3054C59.3134 59.7825 59.9867 60.2595 60.6758 60.7048C60.872 60.832 61.0841 60.7896 61.1689 60.4875C61.4923 59.3478 61.8475 58.2134 62.1656 57.0685C62.2504 56.761 62.2186 56.4642 61.7627 56.5172C61.1053 56.5967 60.5857 56.2998 60.1192 55.897C59.8223 55.6425 59.6102 55.5948 59.3823 55.9977C58.8839 56.9094 58.7514 57.9219 58.5234 58.7859ZM47.4327 25.8467C47.4751 25.6453 47.3797 25.4704 47.0404 25.5022C46.436 25.5605 45.9588 25.2901 45.5294 24.9085C45.1 24.5321 44.7713 24.5321 44.5327 25.1152C44.1881 25.9527 43.9443 26.8115 43.7799 27.6967C43.7428 27.9087 43.6951 28.1579 43.9443 28.2851C44.66 28.6561 45.2643 29.1915 45.927 29.6368C46.1603 29.7958 46.3353 29.7428 46.4148 29.4513C46.7435 28.2851 47.0775 27.1136 47.438 25.8467H47.4327ZM63.5546 51.6351C63.5546 51.3118 63.3637 51.2535 63.1092 51.2747C62.648 51.3118 62.2451 51.1899 61.9111 50.8665C61.5559 50.522 61.2961 50.6492 61.1477 51.0627C60.9833 51.5185 60.8932 52.0009 60.7024 52.4462C60.3949 53.1618 60.5009 53.6547 61.259 53.9993C61.6248 54.1636 61.9535 54.4287 62.2133 54.7626C62.3776 54.9746 62.5685 54.9481 62.648 54.7043C62.9661 53.6865 63.2577 52.6582 63.5599 51.6351H63.5546Z" fill="#9FC43D"/>
<path d="M19.3611 35.2397C20.4108 35.7327 21.6037 35.738 22.8389 35.4783C23.2524 35.3935 23.7031 35.6479 24.0636 35.8917C24.5407 36.2151 24.9065 36.1356 25.2776 35.738C25.707 35.2768 26.1365 34.7839 26.709 35.6161C26.8469 35.8122 27.165 35.7433 27.4035 35.7433C28.4744 35.7433 29.5506 35.7062 30.6216 35.7433C31.6394 35.7751 32.4665 36.0826 33.0231 37.0897C33.3041 37.5986 33.829 38.1234 34.5818 38.1234C34.9476 38.1234 35.3187 38.2294 35.6739 38.1817C36.3684 38.081 36.6547 38.4043 36.8667 39.0192C37.2591 40.1377 38.0119 40.8109 39.2789 40.9169C40.7687 41.0388 40.8588 41.1713 40.8429 42.6768C40.8376 43.3606 41.1398 43.6256 41.7759 43.7157C42.3008 43.7846 42.9794 43.5514 43.3134 43.9808C43.6368 44.3995 43.2339 44.9932 43.1914 45.5127C43.1013 46.5676 43.096 46.5676 44.1404 46.5729C45.1742 46.5782 45.3121 46.7213 45.2749 47.7814C45.2431 48.7568 45.1848 49.7268 45.153 50.7022C45.1371 51.2005 45.1954 51.6775 45.6779 51.985C45.9005 52.1281 46.0065 52.3719 45.9217 52.6211C45.3598 54.3226 45.8793 55.9341 46.2981 57.5614C46.489 58.3141 46.7329 59.0616 46.6957 59.8514C46.6745 60.2754 46.6268 60.7101 46.1921 60.9062C45.6354 61.1554 45.6567 61.6006 45.715 62.0724C45.8051 62.7827 46.0967 63.5407 45.1159 63.9277C44.8561 64.0284 45.0417 64.2776 45.1318 64.426C45.5347 65.0886 45.3916 65.7088 44.9462 66.2548C44.4479 66.859 44.1563 67.5216 44.0609 68.2956C43.9973 68.7991 43.7799 69.2285 43.2551 69.4193C42.9953 69.5148 42.8787 69.7162 42.815 69.96C42.7143 70.3364 42.5447 70.7127 42.5447 71.0944C42.5447 72.1227 42.2478 72.8702 41.2299 73.3737C40.6202 73.6759 40.4028 74.4869 40.0052 75.07C39.8144 75.3509 39.6606 75.7167 39.2259 75.3615C38.9714 75.1548 38.8548 75.3774 38.6958 75.5312C38.0702 76.1408 37.4764 76.7928 36.6441 77.1373C36.5805 77.1638 36.4797 77.2115 36.4797 77.2486C36.5221 78.3088 35.4671 78.7965 35.2127 79.7294C35.0059 80.498 34.55 80.5828 33.9827 80.0156C33.4049 79.4432 32.8429 79.422 32.1325 79.7188C31.0404 80.18 30.0172 80.832 28.8084 80.9963C28.6865 81.0122 28.554 81.0864 28.4532 81.0493C27.2816 80.6729 26.3909 81.2719 25.495 81.8709C25.1716 82.083 24.8535 82.2102 24.493 81.9133C24.212 81.6801 24.106 81.8285 23.9947 82.1307C23.6342 83.1166 23.1517 83.2491 22.3035 82.613C22.0914 82.454 21.8687 82.3003 21.6673 82.1201C21.0576 81.5847 20.4479 81.0864 19.5467 81.1659C19.3187 81.1871 19.043 81.1182 18.8416 81.0069C18.2107 80.657 17.9138 80.9062 17.6275 81.4999C17.2511 82.2844 16.6786 82.3162 16.0795 81.6536C15.6024 81.1235 15.2896 80.4821 14.9609 79.8619C14.7064 79.3795 14.3671 79.1993 13.8582 79.1887C13.4712 79.1887 13.0735 79.1781 12.6918 79.1039C11.5573 78.8866 11.0325 78.3194 10.8522 77.1797C10.6613 75.9817 10.6454 75.9764 9.4261 75.9287C9.03909 75.9128 8.65208 75.8598 8.27037 75.7856C7.54406 75.6478 7.25778 75.2449 7.43273 74.5346C7.59177 73.8826 7.50165 73.5434 6.72232 73.4956C6.01722 73.4479 5.65672 72.8808 5.41815 72.2659C5.32272 72.022 5.30682 71.7252 4.96222 71.6828C3.76408 71.5344 3.56792 70.5802 3.43538 69.6632C3.33466 68.9953 3.23393 68.4546 2.51292 68.163C1.99867 67.951 2.02518 67.4103 2.13121 66.9492C2.24785 66.4509 2.4228 65.9685 2.59775 65.4861C2.7833 64.9773 2.59775 64.7122 2.0994 64.5638C1.27767 64.3253 1.01789 63.8482 1.46852 63.1114C2.30616 61.7438 1.88734 60.5935 1.01259 59.4962C0.657391 59.051 0.604376 58.6799 0.90126 58.1869C1.28827 57.5349 1.4049 56.9889 0.58317 56.4112C-0.402912 55.7115 -0.0742184 54.2325 1.08681 53.6812C1.26176 53.5964 1.46322 53.5699 1.63287 53.4798C1.95096 53.3155 2.03578 53.1247 1.63287 52.9391C1.56925 52.9073 1.46852 52.902 1.43671 52.849C1.24586 52.5575 0.72631 52.5204 0.789929 52.0539C0.848245 51.6245 1.23526 51.5344 1.56925 51.3966C1.79191 51.3012 2.00928 51.1899 2.22134 51.0785C2.71968 50.8135 3.04307 50.6068 2.34327 50.0979C1.7442 49.6685 2.03048 48.99 2.48641 48.6561C3.26574 48.0942 3.25513 47.3786 3.24983 46.557C3.24983 45.3749 3.59443 44.3359 4.66534 43.6044C5.19549 43.244 5.86878 42.9047 5.90059 42.0831C5.91119 41.8657 6.14446 41.8817 6.2929 41.818C7.06692 41.4682 7.85685 41.1395 8.62027 40.7632C9.47911 40.3338 9.63286 40.0052 9.4208 39.0722C9.32537 38.6323 9.46851 38.4414 9.89793 38.3672C10.4281 38.2771 10.9635 38.1711 11.4937 38.2347C13.0152 38.4255 14.2293 37.7629 15.3956 36.9095C16.3022 36.2522 17.2405 35.6426 18.3591 35.3935C18.6401 35.3299 18.9317 35.3034 19.3664 35.2397H19.3611ZM23.7031 79.4962C35.2074 79.6923 44.7872 69.9759 44.8349 58.3566C44.8826 46.3767 35.4406 36.7929 23.7985 36.8035C12.1352 36.8141 2.57654 46.117 2.69317 58.4944C2.8045 70.0607 12.1299 79.5598 23.7084 79.5015L23.7031 79.4962Z" fill="#9FC43D"/>
<path d="M49.5903 54.312C49.8129 53.3314 50.0197 52.3613 50.4544 51.4549C50.7089 50.9248 51.0482 51.1316 51.3398 51.3542C51.8328 51.7358 52.3046 52.0751 52.9885 51.9267C53.3543 51.8472 53.3013 52.1864 53.2536 52.3666C52.9355 53.607 52.5909 54.8421 52.2569 56.0772C52.1774 56.3741 51.9918 56.39 51.7586 56.2362C51.0906 55.7963 50.4968 55.2556 49.7758 54.8951C49.5213 54.7679 49.6539 54.5029 49.585 54.3067H49.5903V54.312Z" fill="#13A34C"/>
<path d="M50.9102 48.9052C50.0673 48.5978 49.1289 48.2638 48.3231 47.6648C48.0686 47.4793 48.0792 47.1878 48.2965 46.9598C48.8002 46.4297 49.1236 45.8467 49.0653 45.078C49.0388 44.7494 49.2455 44.6646 49.5477 44.7918C50.5709 45.2318 51.5941 45.677 52.6173 46.1117C53.1792 46.3502 52.9089 46.7425 52.718 46.9916C52.2886 47.5482 51.8221 48.073 51.5093 48.7091C51.3979 48.9317 51.2071 48.9158 50.9102 48.9052Z" fill="#13A34C"/>
<path d="M57.2456 55.0171C56.9912 55.0171 56.8957 54.8951 56.795 54.7414C56.4186 54.1795 55.8937 53.8615 55.2046 53.8827C54.8016 53.8933 54.685 53.7661 54.8281 53.3632C55.2364 52.25 55.6234 51.1263 55.9998 50.0025C56.1429 49.5625 56.3497 49.6367 56.6413 49.8435C57.2933 50.2993 57.7652 50.9937 58.5339 51.3012C58.6611 51.3542 58.6558 51.492 58.6293 51.6192C58.3696 52.7324 57.9772 53.7926 57.463 54.8156C57.4153 54.911 57.2933 54.9693 57.2403 55.0171H57.2456Z" fill="#13A34C"/>
<path d="M42.8102 21.7757C42.6724 22.115 42.5345 22.4489 42.3967 22.7882C42.0839 23.5568 41.7499 24.3095 41.4742 25.0887C41.2622 25.6877 40.9706 25.6612 40.573 25.2954C40.0534 24.8184 39.624 24.2406 38.9825 23.9066C38.7599 23.79 38.7599 23.5833 38.8394 23.403C39.1946 22.5761 39.3854 21.6803 39.8626 20.9064C40.1223 20.4876 40.4033 20.1272 40.907 20.742C41.2781 21.1926 41.7817 21.516 42.4391 21.4471C42.6459 21.4258 42.8314 21.5054 42.8102 21.781V21.7757Z" fill="#13A34C"/>
<path d="M53.1057 68.285C52.9997 68.4175 52.8884 68.6083 52.7346 68.7567C51.9924 69.4564 51.2237 70.1296 50.4974 70.84C50.1263 71.2057 49.9354 71.0891 49.7605 70.6756C49.4636 69.9865 49.2462 69.2603 48.8274 68.6189C48.6896 68.4069 48.7267 68.1842 48.8963 68.0146C49.5166 67.405 50.0733 66.7212 50.8049 66.2336C51.2396 65.9473 51.563 65.889 51.7804 66.5304C51.9659 67.0923 52.2151 67.6807 52.8778 67.8927C53.0209 67.9404 53.1216 68.057 53.1057 68.285Z" fill="#13A34C"/>
<path d="M46.3774 34.0153C46.3456 34.1213 46.3456 34.2061 46.3032 34.2538C45.6246 35.0436 45.0149 35.9077 44.0978 36.4483C43.838 36.6021 43.5941 36.6445 43.4722 36.2628C43.2495 35.5419 42.8572 34.9535 42.1415 34.6302C41.834 34.4923 41.9082 34.3121 42.0938 34.1266C42.9473 33.2678 43.8009 32.4038 44.6544 31.5504C44.7817 31.4232 44.9301 31.3119 45.0679 31.5345C45.5716 32.3349 45.7995 33.2785 46.3721 34.0153H46.3774Z" fill="#13A34C"/>
<path d="M56.398 64.4207C56.4987 64.4631 56.6631 64.5108 56.8062 64.5956C57.6969 65.1257 58.5769 65.6823 59.4835 66.1964C59.8599 66.4085 59.9288 66.5887 59.6054 66.9015C59.0859 67.4103 58.5663 67.9192 58.1369 68.5129C57.962 68.7514 57.7658 68.8468 57.453 68.6931C56.7161 68.3221 55.9792 67.9616 55.3165 67.458C54.8341 67.0923 54.728 66.7424 55.2529 66.2972C55.7141 65.8996 56.1117 65.4384 56.0587 64.7493C56.0428 64.5691 56.1011 64.4048 56.398 64.4207Z" fill="#13A34C"/>
<path d="M65.7013 53.1565C65.8445 52.2977 66.1254 51.3436 66.5231 50.4319C66.698 50.029 67.0002 50.0131 67.3395 50.3205C67.7954 50.734 68.2938 51.0627 68.9671 50.9619C69.2957 50.9142 69.4018 51.0998 69.3223 51.4072C69.0042 52.5999 68.6808 53.7926 68.368 54.9905C68.262 55.404 68.0075 55.4464 67.7265 55.2132C67.1115 54.7043 66.5708 54.1106 65.8392 53.7555C65.6695 53.6706 65.6907 53.4639 65.7013 53.1618V53.1565Z" fill="#13A34C"/>
<path d="M57.2142 25.4174C57.2142 26.0004 57.1983 26.5835 57.2142 27.1613C57.2301 27.6225 57.0551 27.8027 56.6045 27.6543C55.9153 27.4317 55.2261 27.1931 54.5316 26.9864C54.2771 26.9122 54.1658 26.7585 54.1658 26.5146C54.1658 25.5711 54.0969 24.6328 54.2506 23.684C54.3513 23.0903 54.6747 23.0585 55.0564 23.244C55.6449 23.5303 56.2122 23.5727 56.7953 23.297C57.1558 23.1274 57.2195 23.297 57.2142 23.5992V25.4174Z" fill="#13A34C"/>
<path d="M62.6158 46.3078C62.2553 47.0711 62.0644 48.0889 61.4335 48.9211C61.2215 49.2021 60.9988 49.2816 60.7231 48.9688C60.2619 48.444 59.7264 48.0518 58.9789 48.0253C58.576 48.0094 58.6767 47.7125 58.7669 47.4899C59.2069 46.435 59.6522 45.3908 60.1081 44.3412C60.2566 43.9914 60.4262 43.8323 60.8079 44.161C61.3805 44.6487 61.8417 45.2636 62.4938 45.6664C62.6582 45.7671 62.6529 45.9527 62.6158 46.3078Z" fill="#13A34C"/>
<path d="M57.0442 44.0921C57.0442 44.6752 57.0336 45.2583 57.0442 45.8414C57.0548 46.329 56.848 46.4244 56.4133 46.2813C55.7241 46.0587 55.0614 45.7353 54.3245 45.6558C54.139 45.6346 54.0117 45.5021 54.0117 45.3113C54.017 44.2935 53.9057 43.2758 54.0912 42.2633C54.1655 41.8552 54.351 41.7332 54.7433 41.8711C55.3795 42.099 55.9998 42.3534 56.689 41.9347C56.9912 41.7544 57.076 42.0778 57.0707 42.3428V44.0921H57.0336H57.0442Z" fill="#13A34C"/>
<path d="M68.4903 60.1747C68.4744 60.4027 68.3418 60.5776 68.2252 60.7631C67.8753 61.3144 67.3982 61.7809 67.1649 62.4064C67.0642 62.682 66.8468 62.6926 66.6294 62.629C65.7865 62.4011 64.9542 62.1413 64.1854 61.7173C63.7348 61.4681 63.5387 61.1819 64.0052 60.6995C64.4081 60.2754 64.6414 59.7348 64.5618 59.1093C64.5035 58.6587 64.6414 58.4573 65.1291 58.6481C66.1417 59.0457 67.1649 59.4273 68.1828 59.8143C68.3471 59.8779 68.4956 59.9574 68.4903 60.1694V60.1747Z" fill="#13A34C"/>
<path d="M38.8337 33.2307C37.9802 32.9127 37.0153 32.6583 36.2148 32.0275C35.9603 31.826 35.9179 31.5822 36.1352 31.3331C36.6283 30.7712 37.0047 30.1722 36.9199 29.3771C36.888 29.0696 37.0683 28.9954 37.3387 29.112C38.4043 29.5785 39.4699 30.0397 40.5355 30.5061C40.9225 30.6758 40.8695 30.9673 40.668 31.2164C40.1856 31.8207 39.6872 32.4144 39.2896 33.0823C39.2101 33.2201 39.0776 33.2732 38.8337 33.2254V33.2307Z" fill="#13A34C"/>
<path d="M63.629 36.5172C64.3182 36.7717 64.9809 37.0102 65.6383 37.2541C66.073 37.4131 66.4972 37.5986 66.9372 37.7364C67.4143 37.8849 67.4249 38.1923 67.197 38.5209C66.7622 39.1358 66.301 39.7348 65.9829 40.4239C65.8822 40.636 65.7444 40.6837 65.5111 40.6201C64.6416 40.3815 63.7828 40.1271 62.9929 39.6712C62.5422 39.4115 62.4998 39.0987 62.8126 38.7224C63.2685 38.1764 63.5389 37.5774 63.4011 36.8459C63.3693 36.6657 63.4064 36.496 63.629 36.5172Z" fill="#13A34C"/>
<path d="M52.5276 37.0367C52.2413 37.9061 52.0716 38.8708 51.5256 39.7083C51.2711 40.1006 51.0537 40.2066 50.6826 39.8143C50.2797 39.385 49.7973 39.0457 49.1505 39.104C48.7582 39.1358 48.6627 38.9079 48.7688 38.6005C49.1611 37.4502 49.5799 36.3052 49.9934 35.1655C50.0995 34.8687 50.2744 34.7945 50.5448 35.0065C51.1598 35.4836 51.6846 36.072 52.3632 36.4695C52.5753 36.5915 52.5488 36.7876 52.5329 37.042H52.5276V37.0367Z" fill="#13A34C"/>
<path d="M64.657 25.6506C64.6676 25.905 64.5298 26.0376 64.376 26.1648C63.8512 26.6153 63.3953 27.103 63.3528 27.8557C63.3316 28.2109 63.1143 28.1579 62.8969 28.0148C61.932 27.3681 60.9566 26.7267 60.0023 26.0694C59.6259 25.8096 59.7955 25.5022 60.0553 25.2848C60.612 24.8131 61.1633 24.3413 61.6193 23.7635C61.7465 23.6045 61.9161 23.5568 62.0699 23.6469C62.9499 24.1558 63.8459 24.6487 64.5351 25.428C64.5987 25.4969 64.6252 25.5976 64.657 25.6559V25.6506Z" fill="#13A34C"/>
<path d="M34.1043 24.3678C34.9472 24.5374 35.6152 24.9456 36.3097 25.2636C36.7232 25.4545 37.1739 25.5499 37.5768 25.7831C37.9744 26.0163 38.1228 26.2125 37.7676 26.6153C37.4018 27.0341 36.9936 27.4529 36.7656 27.9458C36.4316 28.6721 35.9757 28.6667 35.3713 28.3858C34.7564 28.0996 34.1096 27.8928 33.5423 27.5165C33.1235 27.2408 32.9751 26.9705 33.4098 26.5464C33.9982 25.9739 34.1891 25.2265 34.099 24.3678H34.1043Z" fill="#13A34C"/>
<path d="M51.6635 21.3357C51.6794 21.5849 51.5363 21.728 51.3454 21.8658C50.8524 22.2157 50.5184 22.6662 50.4283 23.2864C50.3593 23.7688 50.1367 23.8271 49.7391 23.5462C48.9067 22.9631 48.0585 22.4012 47.2155 21.8393C46.7437 21.5266 46.7437 21.2138 47.1678 20.864C47.6715 20.4452 48.1539 20.0105 48.5674 19.4964C48.7371 19.2896 48.912 19.1624 49.1877 19.3267C49.9829 19.7985 50.757 20.2968 51.4621 20.8905C51.5999 21.0071 51.6688 21.1555 51.6741 21.3357H51.6635Z" fill="#13A34C"/>
<path d="M56.3602 36.7823C56.8797 36.9731 57.4258 37.1692 57.9665 37.376C58.2846 37.4979 58.5974 37.6304 58.9102 37.7523C60.0818 38.2029 60.103 38.2824 59.3555 39.3267C59.1859 39.5599 58.9473 39.7719 58.8519 40.0317C58.5497 40.901 58.0142 40.901 57.2826 40.5936C56.7048 40.3497 56.1004 40.1695 55.5384 39.8726C55.0772 39.6288 55.0454 39.2949 55.3264 38.9185C55.7399 38.3619 56.1057 37.8159 55.9572 37.0685C55.9042 36.7929 56.1163 36.7611 56.3602 36.7823Z" fill="#13A34C"/>
<path d="M62.7854 32.5787C63.183 31.7624 63.3261 30.7235 63.9888 29.8965C64.2274 29.5944 64.4076 29.5361 64.6727 29.8488C65.1233 30.3895 65.6694 30.7659 66.4116 30.7712C66.7509 30.7712 66.735 30.9726 66.6343 31.2164C66.1836 32.319 65.7224 33.4163 65.293 34.5294C65.1392 34.9323 64.8901 34.9588 64.6356 34.7203C64.0736 34.1849 63.5435 33.6124 62.902 33.1565C62.7482 33.0452 62.7535 32.8597 62.7801 32.5787H62.7854Z" fill="#13A34C"/>
<path d="M54.4146 30.5697C54.3775 30.6439 54.3404 30.7553 54.2715 30.8507C53.7996 31.4974 53.3119 32.1335 52.8559 32.7908C52.7234 32.9763 52.5962 32.9763 52.4212 32.9127C51.6048 32.6105 50.7619 32.3614 50.009 31.9055C49.5266 31.6087 49.4736 31.2376 49.85 30.8242C50.29 30.3365 50.5975 29.817 50.5021 29.1226C50.465 28.8682 50.5604 28.6614 50.8732 28.794C51.9918 29.271 53.0998 29.7534 54.2131 30.2411C54.3351 30.2941 54.3934 30.3948 54.4146 30.5697Z" fill="#13A34C"/>
<path d="M30.5947 31.9056C30.7485 30.9726 30.9711 29.9814 31.4589 29.0643C31.655 28.6986 31.8989 28.6615 32.217 28.953C32.6782 29.3771 33.2084 29.658 33.8658 29.605C34.1945 29.5785 34.3164 29.7534 34.2316 30.0556C33.9135 31.2005 33.5848 32.3455 33.2667 33.4905C33.1554 33.8934 32.9221 33.9199 32.6146 33.7131C31.9943 33.2891 31.4748 32.7325 30.7644 32.4356C30.5841 32.3614 30.5947 32.16 30.6 31.9003L30.5947 31.9056Z" fill="#13A34C"/>
<path d="M55.3003 74.1901C55.5177 73.114 55.735 72.1705 56.1379 71.2799C56.3235 70.8665 56.5727 70.7074 56.9703 71.0838C57.4262 71.5132 57.9617 71.7729 58.6191 71.7146C58.953 71.6828 59.1227 71.7676 59.0061 72.1652C58.6721 73.3048 58.3646 74.4498 58.0412 75.5948C57.9564 75.8916 57.8026 76.0718 57.458 75.8492C56.7847 75.4198 56.2016 74.858 55.4647 74.5187C55.295 74.4392 55.295 74.2378 55.3003 74.1901Z" fill="#13A34C"/>
<path d="M53.1529 74.2537C52.8242 75.4464 52.4955 76.6337 52.1616 77.8211C52.0608 78.171 51.8329 78.2187 51.5519 78.0119C50.9316 77.5508 50.3325 77.0525 49.638 76.692C49.4525 76.5966 49.4313 76.4164 49.4684 76.2468C49.6698 75.3244 49.8448 74.3915 50.2477 73.5275C50.5075 72.9709 50.8362 72.8702 51.2868 73.3472C51.695 73.7766 52.1934 73.9992 52.7977 73.8614C53.1688 73.7766 53.2325 73.9409 53.1476 74.2484H53.1529V74.2537Z" fill="#13A34C"/>
<path d="M48.435 40.7897C48.1593 41.1713 47.8465 41.6007 47.539 42.0301C46.993 42.7881 46.272 42.9895 45.376 42.645C44.9201 42.47 44.496 42.2421 44.0718 42.0036C43.5841 41.7279 43.5258 41.4205 43.8704 41.0176C44.3263 40.4875 44.6709 39.9257 44.6285 39.1888C44.6126 38.8443 44.8034 38.8549 45.0526 38.9662C46.0493 39.4009 47.0513 39.8249 48.0533 40.2543C48.2547 40.3444 48.4509 40.4557 48.4297 40.795H48.435V40.7897Z" fill="#13A34C"/>
<path d="M52.814 63.3817C51.9816 62.9789 50.9372 62.841 50.1579 62.1201C49.9087 61.8922 49.8928 61.6961 50.142 61.4469C50.6297 60.9486 50.9531 60.3603 50.9213 59.6393C50.9001 59.1835 51.1122 59.157 51.4515 59.3054C52.4747 59.756 53.4926 60.2065 54.5211 60.6518C54.7967 60.7737 54.9293 60.9327 54.7225 61.2031C54.2189 61.8604 53.6887 62.4912 53.2858 63.2174C53.201 63.3711 53.0684 63.3923 52.8246 63.387H52.814V63.3817Z" fill="#13A34C"/>
<path d="M66.1468 66.6099C66.046 66.7424 65.9771 66.8696 65.8764 66.9651C65.0706 67.7337 64.2594 68.497 63.4589 69.2656C63.0931 69.6155 62.8916 69.4829 62.7167 69.0748C62.4304 68.4122 62.2555 67.6966 61.8313 67.0976C61.6882 66.8962 61.7518 66.6788 61.9003 66.4933C62.494 65.7512 63.1673 65.0939 63.9626 64.5638C64.2859 64.3518 64.5457 64.3518 64.6836 64.7864C64.9009 65.4755 65.219 66.0904 65.9453 66.382C66.0195 66.4138 66.0726 66.5145 66.1521 66.6046L66.1468 66.6099Z" fill="#13A34C"/>
<path d="M44.1885 75.2131C44.3793 74.3597 44.5861 73.432 44.9731 72.568C45.1481 72.1811 45.4237 71.969 45.8744 72.3931C46.3144 72.8066 46.8604 73.1087 47.5231 72.9868C47.9632 72.9073 47.8942 73.2253 47.8412 73.432C47.5231 74.5982 47.1679 75.7538 46.8445 76.92C46.7385 77.2963 46.4681 77.2274 46.2826 77.1055C45.6093 76.6761 44.9625 76.215 44.3104 75.7538C44.1514 75.6425 44.1991 75.4464 44.1938 75.2078H44.1885V75.2131Z" fill="#13A34C"/>
<path d="M67.0215 46.1488C67.26 45.2689 67.4191 44.2776 67.8856 43.3818C68.05 43.0637 68.2673 42.963 68.5854 43.2069C69.1421 43.6468 69.6934 44.0762 70.4993 43.8695C70.7484 43.8059 70.7856 44.0444 70.7219 44.267C70.372 45.4544 70.0221 46.6471 69.6828 47.8345C69.5927 48.1525 69.4337 48.232 69.1527 48.0412C68.4953 47.5853 67.8326 47.1295 67.1752 46.6789C67.0056 46.5623 67.0003 46.4032 67.0215 46.1435V46.1488Z" fill="#13A34C"/>
<path d="M59.4194 32.8968C59.4194 33.4799 59.4035 34.063 59.4194 34.6461C59.4353 35.1443 59.1914 35.245 58.7832 35.1178C58.1364 34.9164 57.5055 34.6726 56.8535 34.487C56.5619 34.4022 56.4983 34.2432 56.4505 33.9782C56.2703 33.0081 56.3445 32.0434 56.493 31.0839C56.5566 30.6758 56.8057 30.5273 57.1715 30.697C57.8024 30.9885 58.4227 31.0521 59.0642 30.7553C59.4141 30.5909 59.4194 30.856 59.4247 31.0786C59.43 31.6882 59.4247 32.2925 59.4247 32.9021H59.4141L59.4194 32.8968Z" fill="#13A34C"/>
<path d="M58.5231 58.7859C58.7511 57.9166 58.8836 56.9041 59.382 55.9977C59.6046 55.5895 59.822 55.6372 60.1189 55.897C60.5907 56.3051 61.105 56.5967 61.7624 56.5172C62.2183 56.4642 62.2501 56.761 62.1653 57.0685C61.8419 58.2134 61.492 59.3425 61.1686 60.4875C61.0838 60.7896 60.8717 60.832 60.6755 60.7048C59.9864 60.2595 59.3184 59.7772 58.6451 59.3054C58.5178 59.2153 58.5125 59.051 58.5231 58.7859Z" fill="#13A34C"/>
<path d="M47.4328 25.8467C47.0722 27.1189 46.7436 28.2851 46.4096 29.4513C46.33 29.7428 46.1551 29.7905 45.9218 29.6368C45.2538 29.1915 44.6548 28.6561 43.939 28.2851C43.6952 28.1579 43.7376 27.9087 43.7747 27.6967C43.9391 26.8115 44.1829 25.9474 44.5275 25.1152C44.7714 24.5321 45.1001 24.5268 45.5242 24.9085C45.9536 25.2901 46.4308 25.5605 47.0351 25.5022C47.3691 25.4704 47.4699 25.6453 47.4274 25.8467H47.4328Z" fill="#13A34C"/>
<path d="M63.5545 51.6351C63.2523 52.6582 62.9607 53.6865 62.6426 54.7043C62.5684 54.9481 62.3776 54.9746 62.2079 54.7626C61.9534 54.434 61.6301 54.1742 61.2536 53.9993C60.4955 53.6547 60.3895 53.1618 60.697 52.4462C60.8878 52.0009 60.978 51.5185 61.1423 51.0627C61.2908 50.6492 61.5505 50.522 61.9057 50.8665C62.2397 51.1899 62.6426 51.3171 63.1039 51.2747C63.353 51.2535 63.5439 51.3065 63.5492 51.6351H63.5545Z" fill="#13A34C"/>
<path d="M23.7028 79.4962C12.1243 79.5545 2.79891 70.0554 2.68758 58.4891C2.57095 46.117 12.1296 36.8088 23.7929 36.7982C35.435 36.7876 44.877 46.3714 44.8293 58.3513C44.7869 69.9706 35.2018 79.687 23.6975 79.4909H23.7028V79.4962ZM42.3005 58.4626C42.2581 57.5402 42.3005 56.6285 42.168 55.7008C41.7863 53.0345 40.8903 50.5538 39.5013 48.2691C38.4516 46.5411 37.1156 44.9985 35.5517 43.7157C34.7299 43.0425 33.8605 42.417 32.9327 41.94C31.3794 41.1342 29.7677 40.4504 28.0182 40.0953C26.221 39.7348 24.4291 39.3373 22.6107 39.5917C20.3893 39.9045 18.221 40.4186 16.1428 41.3728C14.4251 42.1626 12.893 43.1857 11.5835 44.4684C10.2847 45.7353 9.08121 47.1135 8.15344 48.7515C6.54708 51.5768 5.68294 54.5665 5.58751 57.7788C5.51329 60.2383 5.9109 62.6131 6.81746 64.9349C7.61269 66.9704 8.65178 68.8203 10.0832 70.4742C11.0269 71.5662 12.0023 72.6634 13.2058 73.4161C14.8864 74.471 16.5829 75.5206 18.5497 76.0718C19.7956 76.4217 21.0467 76.7291 22.3138 76.8193C25.8605 77.0684 29.2641 76.5118 32.4397 74.7996C34.9526 73.4426 37.1103 71.6616 38.7432 69.3345C39.7876 67.8503 40.6941 66.2919 41.2402 64.4896C41.8393 62.5018 42.38 60.5564 42.2952 58.4679H42.3005V58.4626Z" fill="#E7DABE"/>
<path d="M42.3004 58.4626C42.3852 60.5511 41.8445 62.4965 41.2454 64.4843C40.6994 66.2866 39.7928 67.845 38.7484 69.3292C37.1102 71.6563 34.9578 73.4427 32.4449 74.7944C29.2693 76.5065 25.8604 77.0631 22.319 76.814C21.0519 76.7239 19.8008 76.4164 18.5549 76.0666C16.5881 75.5153 14.8916 74.4657 13.211 73.4109C12.0076 72.6581 11.0321 71.5609 10.0884 70.4689C8.657 68.8151 7.6179 66.9651 6.82267 64.9296C5.91612 62.6131 5.5185 60.233 5.59272 57.7735C5.68815 54.5612 6.5523 51.5715 8.15866 48.7462C9.08642 47.1083 10.2899 45.7353 11.5887 44.4632C12.8982 43.1857 14.4303 42.1573 16.148 41.3675C18.2262 40.4133 20.3946 39.8992 22.6159 39.5864C24.429 39.332 26.2262 39.7295 28.0234 40.09C29.7782 40.4451 31.3846 41.1289 32.9379 41.9347C33.8657 42.417 34.7352 43.0372 35.5569 43.7104C37.1314 45.0038 38.4568 46.5305 39.5065 48.2638C40.8902 50.5379 41.7968 53.0611 42.1732 55.6956C42.3057 56.6232 42.2633 57.5402 42.3057 58.4573H42.3004V58.4626ZM19.6099 58.2293C19.26 60.6995 21.8313 62.8675 23.8936 62.8251C26.4118 62.7774 28.4104 60.7684 28.3786 58.2717C28.3468 55.6054 26.4012 53.6813 23.8246 53.6123C21.8207 53.5593 19.3502 55.9924 19.6099 58.224V58.2293ZM33.3886 58.118C35.0744 58.1869 36.755 58.0915 38.3561 57.5243C39.6231 57.0791 40.6728 56.2256 40.5774 54.7732C40.5085 53.7449 40.0049 52.9232 39.6072 52.0539C39.0718 50.893 37.6881 50.3152 36.4369 50.5856C34.9048 50.9142 33.5582 51.651 32.2116 52.4091C31.5383 52.7854 30.9075 53.2466 30.4197 53.835C29.6881 54.7149 29.932 55.791 30.0963 56.7769C30.2925 57.9643 30.5788 58.1127 31.7769 58.118H33.3886ZM25.325 66.1859C25.2454 67.246 25.537 68.2267 26.0831 69.1066C26.9896 70.559 28.315 71.5768 29.7358 72.5044C30.6 73.0663 31.5171 73.3631 32.5032 73.1776C34.4277 72.8172 34.8571 72.2924 34.3959 70.4848C34.3057 70.1243 34.1255 69.7692 33.9293 69.4511C32.3654 66.9015 30.1281 65.0144 27.7531 63.2757C26.9843 62.7138 26.1149 62.9577 25.765 63.8482C25.4734 64.5956 25.2613 65.3748 25.325 66.1912V66.1859ZM36.8505 66.0215C37.6616 65.9897 38.7908 65.7777 39.761 64.9031C40.5403 64.1981 40.9591 63.3764 41.2189 62.3852C41.5211 61.2296 41.1712 60.5776 40.042 60.4663C38.8597 60.355 37.6775 60.2596 36.4953 60.1747C34.2739 60.0104 32.0526 59.7825 29.8259 59.6818C29.1155 59.65 29.0625 59.9203 29.1474 60.3974C29.211 60.7578 29.3382 61.1501 29.5556 61.4416C30.1918 62.2951 30.8597 63.1167 31.3793 64.0549C31.5754 64.4048 31.867 64.7069 32.2328 64.9296C33.5264 65.7194 34.9366 66.0374 36.8505 66.0215ZM23.867 67.8927C23.867 67.1824 23.9095 66.5728 23.8564 65.9685C23.8034 65.3536 23.8193 64.6115 23.146 64.3253C22.5205 64.0602 22.0804 64.5903 21.6298 64.9508C20.7285 65.6664 20.1136 66.6523 19.2918 67.4421C18.9684 67.7549 18.6079 68.0146 18.3853 68.4493C17.3992 70.3682 18.4807 74.0098 21.1898 74.7201C21.9002 74.9057 22.7219 75.0064 23.4482 74.5558C24.5191 73.8932 24.6729 72.9921 24.3442 71.7411C23.9996 70.4318 23.7504 69.1437 23.867 67.8927ZM16.0685 62.3587C14.9817 62.4647 13.4602 62.7244 12.1295 63.5673C11.4244 64.0125 10.9313 64.7016 10.4754 65.4278C9.89755 66.3555 9.77562 67.8662 10.4012 68.7196C11.2706 69.907 12.7127 70.3947 13.9108 69.9759C16.1692 69.1914 17.4257 67.4368 18.3641 65.396C18.5867 64.9084 18.7776 64.3465 18.6928 63.7793C18.5443 62.7721 17.8922 62.3587 16.0738 62.3587H16.0685ZM26.1997 51.0361C26.1891 52.4992 26.6928 52.8914 28.0446 52.5946C29.1208 52.3561 29.6881 51.5344 30.2554 50.7287C30.987 49.6844 32.0367 49.1544 33.2242 48.937C33.9611 48.7992 34.6238 48.5342 35.2653 48.2108C36.0287 47.8292 36.0128 46.9174 35.5834 46.4138C35.3395 46.1276 35.0426 45.9262 34.7617 45.7035C33.4416 44.6593 32.0526 43.7846 30.2607 43.9331C29.8525 43.9702 29.5609 44.0338 29.3382 44.4685C29.0625 44.9985 28.6702 45.4915 28.2408 45.9103C26.7723 47.3468 26.4012 49.1915 26.1997 51.0361ZM19.3342 52.7218C20.8664 52.5893 21.0678 52.2023 20.6013 50.9937C20.4211 50.522 20.1984 50.0608 20.0606 49.5784C19.541 47.7656 19.048 45.9474 18.714 44.0815C18.4277 42.486 18.3164 42.3905 16.7948 42.9259C15.7663 43.2864 14.7643 43.7793 14.2925 44.9296C13.9638 45.7247 13.9267 46.5252 14.0592 47.3362C14.2819 48.7038 14.6742 50.0184 16.0897 50.6333C16.7418 50.9142 17.2455 51.3224 17.659 51.8684C18.1043 52.4568 18.7246 52.6741 19.3396 52.7218H19.3342ZM9.77562 56.9147V56.9412H8.53506C7.22559 56.9625 7.20438 57.0102 7.17257 58.3089C7.15137 59.0457 7.28921 59.7613 7.35813 60.4822C7.46416 61.5052 8.60928 62.2315 9.97708 62.3693C11.2282 62.4965 12.2726 62.0194 13.2799 61.4204C14.4993 60.6942 15.7716 60.0528 16.6623 58.8548C17.2402 58.0756 16.9592 57.3388 15.8883 57.2593C13.8525 57.1056 11.8167 57.0208 9.77562 56.9094V56.9147ZM27.6629 43.5302C27.6735 42.3799 27.1116 41.9771 25.9505 42.2368C24.2435 42.6185 22.9446 43.6415 21.8366 44.9243C21.2216 45.6399 20.6755 46.3926 20.5165 47.3839C20.3044 48.7144 21.2057 50.1933 22.6106 50.6704C23.9731 51.1316 24.938 50.6704 25.6484 49.2604C26.3906 47.7868 26.7246 46.1594 27.3979 44.6593C27.5675 44.2776 27.7265 43.9013 27.6576 43.5302H27.6629ZM9.66429 51.545C9.66429 53.5487 11.5092 55.5206 13.4178 55.6372C13.8313 55.6638 14.2342 55.738 14.6 55.95C15.602 56.5278 16.6358 56.3953 17.6431 56.003C17.9983 55.8652 18.4171 55.6479 18.2845 55.086C18.1573 54.54 17.8922 54.0046 17.537 53.6441C16.71 52.8119 15.8299 52.0062 14.7802 51.4284C14.5099 51.28 14.2978 51.0574 14.0964 50.8029C13.37 49.8859 12.9406 48.7568 11.9598 48.0147C11.4456 47.6277 11.1434 47.6648 10.8783 48.2108C10.5868 48.8204 10.3323 49.4459 10.0407 50.0555C9.80743 50.5432 9.61657 51.0362 9.65898 51.5397H9.66429V51.545Z" fill="#E1D580"/>
<path d="M19.6103 58.2293C19.3506 55.9977 21.8211 53.5646 23.825 53.6176C26.4016 53.6866 28.3472 55.6107 28.379 58.277C28.4056 60.7684 26.4069 62.7827 23.894 62.8304C21.8317 62.8675 19.2604 60.7048 19.6103 58.2346V58.2293Z" fill="#E7DABE"/>
<path d="M33.3891 58.118H31.7774C30.5793 58.118 30.293 57.9643 30.0968 56.7769C29.9325 55.791 29.6886 54.7149 30.4202 53.835C30.908 53.2466 31.5388 52.7907 32.2121 52.4091C33.5534 51.6563 34.9053 50.9142 36.4374 50.5856C37.6886 50.3152 39.0776 50.8877 39.6078 52.0539C40.0054 52.9232 40.509 53.7396 40.5779 54.7732C40.6734 56.2256 39.6237 57.0791 38.3566 57.5243C36.7555 58.0915 35.075 58.1869 33.3891 58.118Z" fill="#F2B41D"/>
<path d="M25.3254 66.1858C25.2618 65.3642 25.4739 64.585 25.7655 63.8429C26.1101 62.9524 26.9848 62.7085 27.7535 63.2704C30.1286 65.0091 32.3658 66.8961 33.9298 69.4458C34.1259 69.7692 34.3009 70.119 34.3963 70.4795C34.8576 72.2871 34.4334 72.8171 32.5037 73.1723C31.5176 73.3578 30.6004 73.0557 29.7363 72.4991C28.3155 71.5768 26.9901 70.5537 26.0835 69.1013C25.5375 68.2267 25.2459 67.2407 25.3254 66.1805V66.1858Z" fill="#F2B41D"/>
<path d="M36.8507 66.0215C34.9422 66.0321 33.5267 65.7194 32.2331 64.9296C31.8779 64.7175 31.5863 64.4154 31.3796 64.0549C30.86 63.122 30.192 62.2951 29.5558 61.4416C29.3385 61.1501 29.2112 60.7631 29.1476 60.3974C29.0628 59.9203 29.1158 59.6447 29.8262 59.6818C32.0582 59.7825 34.2742 60.0157 36.4955 60.1747C37.6778 60.2595 38.86 60.355 40.0422 60.4663C41.1715 60.5723 41.5214 61.2296 41.2192 62.3852C40.9594 63.3764 40.5459 64.2034 39.7613 64.9031C38.7911 65.7777 37.6619 65.9844 36.8507 66.0215Z" fill="#F2B41D"/>
<path d="M23.8678 67.8927C23.7511 69.1437 24.0056 70.4371 24.3449 71.7411C24.6736 72.9974 24.5199 73.8985 23.449 74.5558C22.7173 75.0064 21.9009 74.9057 21.1905 74.7201C18.4761 74.0045 17.3999 70.3629 18.386 68.4493C18.614 68.0093 18.9692 67.7549 19.2926 67.4421C20.1143 66.6523 20.7293 65.6717 21.6305 64.9508C22.0812 64.5903 22.5212 64.0549 23.1468 64.3253C23.8201 64.6115 23.8042 65.3536 23.8572 65.9685C23.9102 66.5728 23.8678 67.1877 23.8678 67.8927Z" fill="#F2B41D"/>
<path d="M16.0693 62.3587C17.893 62.3587 18.5398 62.7721 18.6882 63.7793C18.773 64.3465 18.5822 64.9084 18.3595 65.396C17.4265 67.4368 16.17 69.1914 13.9063 69.9759C12.7081 70.3947 11.2661 69.907 10.3967 68.7196C9.77107 67.8662 9.89301 66.3502 10.4709 65.4278C10.9268 64.7016 11.4198 64.0125 12.1249 63.5672C13.4556 62.7297 14.9719 62.47 16.064 62.3587H16.0693Z" fill="#F2B41D"/>
<path d="M26.2002 51.0361C26.4017 49.1862 26.7728 47.3415 28.2413 45.9103C28.6707 45.4915 29.0631 44.9985 29.3387 44.4684C29.5614 44.0338 29.853 43.9649 30.2612 43.9331C32.0584 43.7793 33.4474 44.6593 34.7622 45.7035C35.0432 45.9262 35.3401 46.1276 35.5839 46.4138C36.0133 46.9174 36.0292 47.8239 35.2658 48.2108C34.6243 48.5342 33.9564 48.8045 33.2247 48.937C32.0372 49.1597 30.9875 49.6844 30.2559 50.7287C29.6886 51.5397 29.1214 52.3613 28.0452 52.5946C26.6986 52.8914 26.1949 52.4992 26.2002 51.0361Z" fill="#F2B41D"/>
<path d="M19.3343 52.7218C18.714 52.6741 18.0991 52.4568 17.6537 51.8684C17.2508 51.3277 16.7048 50.8983 16.0845 50.6333C14.6743 50.0184 14.282 48.7038 14.054 47.3362C13.9215 46.5252 13.9586 45.7247 14.2873 44.9296C14.7591 43.7793 15.7611 43.2864 16.7896 42.9259C18.3164 42.3905 18.4225 42.486 18.7087 44.0815C19.0427 45.9421 19.5358 47.7602 20.0553 49.5784C20.1932 50.0608 20.4158 50.522 20.5961 50.9937C21.0626 52.2023 20.8612 52.5893 19.329 52.7218H19.3343Z" fill="#F2B41D"/>
<path d="M9.77621 56.9147C11.812 57.0261 13.8531 57.1109 15.8889 57.2646C16.9598 57.3441 17.2407 58.0809 16.6629 58.8601C15.7775 60.0581 14.4999 60.6995 13.2805 61.4257C12.2732 62.0247 11.2288 62.5018 9.97767 62.3746C8.60458 62.2314 7.45945 61.5105 7.35872 60.4875C7.2845 59.7666 7.15196 59.051 7.17317 58.3142C7.20498 57.0155 7.22618 56.9677 8.53566 56.9465C8.94918 56.9412 9.36269 56.9465 9.77621 56.9465V56.92V56.9147Z" fill="#F2B41D"/>
<path d="M27.6632 43.5302C27.7321 43.9013 27.5731 44.2776 27.4034 44.6593C26.7301 46.1594 26.3961 47.7868 25.6539 49.2604C24.9435 50.6704 23.9786 51.1369 22.6162 50.6704C21.2113 50.1933 20.31 48.7144 20.5221 47.3839C20.6811 46.3926 21.2272 45.6399 21.8421 44.9243C22.9501 43.6362 24.2437 42.6185 25.9561 42.2368C27.1171 41.9771 27.6791 42.3799 27.6685 43.5302H27.6632Z" fill="#F2B41D"/>
<path d="M9.66459 51.545C9.61687 51.0414 9.80773 50.5485 10.0463 50.0608C10.3379 49.4512 10.5924 48.8257 10.8839 48.2161C11.1437 47.6701 11.4512 47.633 11.9654 48.02C12.9462 48.7621 13.3756 49.8912 14.102 50.8082C14.3034 51.0626 14.5155 51.2853 14.7859 51.4337C15.8356 52.0115 16.7156 52.8119 17.5426 53.6494C17.8978 54.0099 18.1629 54.5453 18.2902 55.0913C18.4227 55.6478 18.0039 55.8705 17.6487 56.0083C16.6414 56.4006 15.6076 56.5331 14.6056 55.9553C14.2398 55.7433 13.8369 55.669 13.4234 55.6425C11.5095 55.5259 9.67519 53.554 9.66989 51.5503H9.66459V51.545Z" fill="#F2B41D"/>
<path d="M52.2939 9.71637C53.1951 8.02012 56.3071 5.9316 56.3071 5.85739C57.2243 4.88734 58.3058 4.04451 58.8094 2.74052C59.0215 1.87648 59.1593 1.01775 58.7564 0C58.1361 1.21388 57.5106 2.21574 56.7365 3.12217C55.936 4.05512 55.0295 4.87674 54.1123 5.69306C53.3542 6.37157 52.5589 7.00766 51.8485 7.72857C49.7014 9.92311 50.1256 13.9199 52.7021 15.4943C52.612 14.9324 52.5165 14.4182 52.4476 13.8987C52.2727 12.5099 51.5199 11.1476 52.2833 9.70577L52.2939 9.71637Z" fill="url(#paint0_linear_346_2)"/>
<path d="M66.4065 7.877C64.869 8.5608 63.1884 8.76753 61.5927 9.26051C60.6914 9.53615 59.7902 9.81179 58.9525 10.2518C57.1606 11.1953 56.2222 12.6795 56.1162 14.6938C56.7206 14.6143 57.4946 14.9854 57.7915 14.0736C57.9717 12.7908 58.7564 11.9427 59.8273 11.3384C61.5291 10.3737 63.4111 10.0503 65.3196 9.833C65.6854 9.64747 66.0884 9.49374 66.3322 9.14919C66.6132 8.75693 67.0585 8.33817 66.4065 7.877Z" fill="url(#paint1_linear_346_2)"/>
<path d="M61.2692 11.1794C60.4263 11.508 59.6575 11.9374 58.8994 12.7166C60.7178 12.9393 62.0856 11.8261 63.6549 11.7466C64.3971 11.4232 65.3779 11.349 65.3036 10.1722C63.9677 10.5486 62.5734 10.6705 61.2692 11.1794Z" fill="url(#paint2_linear_346_2)"/>
<path d="M56.9379 5.88389H57.59C58.2951 5.49693 59.0797 5.36971 59.8538 5.21599C60.5589 4.05512 60.4793 3.11157 59.5569 1.94009C59.4561 2.22634 59.366 2.48608 59.2759 2.74582C58.9366 4.11872 57.977 5.02516 56.9326 5.87329V5.88389H56.9379Z" fill="url(#paint3_linear_346_2)"/>
<path d="M53.354 14.2857C53.5502 14.1585 53.8205 14.01 53.9107 13.7556C54.2129 13.0135 54.1545 12.2926 54.25 11.5876C54.5203 9.66337 55.7291 8.48129 57.4574 7.76568C59.1539 7.06068 60.9829 6.90695 62.7536 6.50939C64.3069 6.15954 65.7808 5.67187 67.0054 4.6011C67.1114 4.49509 67.2228 4.39437 67.3288 4.28836C67.7476 3.71587 68.3096 3.2229 68.3785 2.28465C66.1731 3.84839 63.7821 4.73362 61.3116 5.37502C59.4773 5.76198 58.3321 6.08533 57.6588 6.30266C57.6376 6.30266 57.6164 6.30796 57.5952 6.31326C57.521 6.33977 57.4521 6.37157 57.3779 6.39808C56.9962 6.5306 56.8424 6.60481 56.8424 6.60481C56.6357 6.68432 56.4342 6.76913 56.2327 6.85395C54.8119 7.47414 53.6297 8.38058 53.0889 9.88601C52.5588 11.3543 52.7602 12.7961 52.9776 14.2857C52.9776 14.2857 53.1526 14.4129 53.3487 14.2857H53.354Z" fill="url(#paint4_linear_346_2)"/>
<path d="M67.5994 4.57459L67.0586 5.13118C66.3217 6.21254 65.0865 6.39277 63.9785 6.71082C62.4039 7.16669 60.7763 7.43173 59.17 7.79218C56.4874 8.39647 54.6266 9.8913 54.669 12.8545C54.669 12.9287 54.669 12.9976 54.6584 13.0718C54.6584 13.0718 54.8546 13.8669 53.0732 14.9059V14.8847C53.1475 15.4253 53.2164 15.9713 53.2429 16.5279C53.7836 16.1091 54.1229 15.8123 54.4994 15.5685C54.8758 15.3246 55.2893 15.1285 55.6816 14.9112C55.6392 12.441 56.8638 10.7659 58.995 9.67927C60.7551 8.78343 62.7061 8.52369 64.5775 7.99361C65.1766 7.82399 65.7863 7.70207 66.3907 7.55365C67.6418 6.92815 68.1985 6.02701 68.0871 4.87144C68.05 4.49508 67.9599 4.34136 67.5941 4.56929L67.5994 4.57459Z" fill="url(#paint5_linear_346_2)"/>
<path d="M63.9041 12.0699C63.0506 12.3403 61.2746 12.865 61.2746 12.865C60.7179 12.9817 60.1559 13.146 59.6099 13.1089C58.8147 13.0559 58.3746 13.3156 58.1626 14.0471C58.152 14.3917 58.3269 14.5454 58.6556 14.4818C59.5622 14.3175 60.5111 14.2698 61.3117 13.7609C61.6616 13.5807 63.2202 12.6106 63.9359 12.16C63.9889 12.1282 63.9518 12.0487 63.8935 12.0646H63.9041V12.0699Z" fill="url(#paint6_linear_346_2)"/>
<path d="M106.041 66.6152V67.1612L106.757 67.2354C106.772 68.0146 106.778 68.7991 106.778 69.5731H104.604C104.604 68.7832 104.604 68.004 104.625 67.2301L105.341 67.1559V66.6099H102.123V67.1559L102.876 67.2354C102.892 68.0782 102.892 71.8471 102.876 72.6846L102.123 72.7642V73.3101H105.341V72.7642L104.625 72.6899C104.609 71.8683 104.609 71.0308 104.609 70.1668H106.783C106.783 71.0467 106.783 71.8789 106.767 72.6899L106.051 72.7642V73.3101H109.269V72.7642L108.517 72.6846C108.501 71.8365 108.501 68.0676 108.517 67.2354L109.269 67.1559V66.6099H106.041V66.6152Z" fill="#060707"/>
<path d="M111.756 66.6152V67.1612L112.519 67.2407C112.535 68.0835 112.535 71.8577 112.519 72.6899L111.756 72.7694V73.3154H115.048V72.7694L114.274 72.6899C114.258 71.8418 114.258 68.0729 114.274 67.2407L115.048 67.1612V66.6152H111.756Z" fill="#060707"/>
<path d="M120.408 70.013V70.559L121.33 70.6756C121.341 71.264 121.346 72.8808 121.346 72.8808C121.224 72.9073 121.103 72.9232 120.965 72.9232C119.835 72.9232 118.934 71.9743 118.934 69.9441C118.934 67.9139 119.873 66.9916 120.981 66.9916C121.224 66.9916 121.463 67.0393 121.712 67.1453L122.004 68.4705H122.794L122.751 66.8802C122.158 66.5675 121.442 66.4138 120.774 66.4138C118.457 66.4138 117.121 67.792 117.121 69.9388C117.121 72.0856 118.553 73.4957 120.652 73.4957C121.558 73.4957 122.253 73.3048 122.963 72.902C122.963 72.902 122.963 71.2322 122.985 70.6226L123.515 70.5537V70.0077H120.403L120.408 70.013Z" fill="#060707"/>
<path d="M129.447 66.6152V67.1612L130.163 67.2354C130.179 68.0146 130.184 68.7991 130.184 69.5731H128.01C128.01 68.7832 128.01 68.004 128.032 67.2301L128.747 67.1559V66.6099H125.529V67.1559L126.282 67.2354C126.298 68.0782 126.298 71.8471 126.282 72.6846L125.529 72.7642V73.3101H128.747V72.7642L128.032 72.6899C128.016 71.8683 128.016 71.0308 128.016 70.1668H130.189C130.189 71.0467 130.189 71.8789 130.173 72.6899L129.458 72.7642V73.3101H132.676V72.7642L131.923 72.6846C131.907 71.8365 131.907 68.0676 131.923 67.2354L132.676 67.1559V66.6099H129.447V66.6152Z" fill="#060707"/>
<path d="M146.396 69.9653C146.396 67.5853 144.832 66.4244 143.157 66.4244C141.482 66.4244 139.918 67.6118 139.918 69.9653C139.918 71.9319 140.984 73.0663 142.309 73.4002C142.378 74.5876 143.194 75.4199 144.605 75.4199C145.156 75.4199 145.67 75.3191 146.015 75.0912L145.792 74.5187C145.538 74.6194 145.257 74.6406 145.055 74.6406C144.377 74.6406 143.942 74.1795 143.921 73.4161C145.283 73.1087 146.396 71.9531 146.396 69.96V69.9653ZM143.157 72.9179C142.129 72.9179 141.726 71.6616 141.726 69.9653C141.726 68.2691 142.134 67.0075 143.157 67.0075C144.18 67.0075 144.589 68.2797 144.589 69.9653C144.589 71.651 144.186 72.9179 143.157 72.9179Z" fill="#060707"/>
<path d="M152.329 66.6152V67.1612L153.256 67.2407V70.4265C153.256 71.9637 152.71 72.5786 151.793 72.5786C150.823 72.5786 150.341 72.0221 150.341 70.4583C150.341 70.4583 150.341 68.0465 150.362 67.246L151.199 67.1612V66.6152H147.87V67.1612L148.607 67.2354C148.623 68.0518 148.628 70.7817 148.628 70.7817C148.628 72.7589 149.726 73.5063 151.231 73.5063C152.917 73.5063 153.924 72.5945 153.924 70.4265V67.2354L154.767 67.1612V66.6152H152.329Z" fill="#060707"/>
<path d="M159.215 66.5993H158.16L156.082 72.6475L155.26 72.7694V73.3154H157.46V72.7694L156.675 72.6475L157.089 71.37H159.146L159.565 72.6899L158.775 72.796V73.3207H161.918V72.796L161.298 72.7217L159.209 66.5993H159.215ZM157.285 70.7763L158.133 68.1737L158.96 70.7763H157.285Z" fill="#060707"/>
<path d="M168.185 72.7323H166.414C166.398 71.8842 166.404 68.0782 166.414 67.246L167.262 67.1612V66.6152H163.896V67.1612L164.659 67.2407C164.675 68.0835 164.681 71.863 164.659 72.6899L163.891 72.7694V73.3154H169.176L169.277 71.317H168.461L168.174 72.7323H168.185Z" fill="#060707"/>
<path d="M171.345 66.6152V67.1612L172.108 67.2407C172.124 68.0835 172.124 71.8577 172.108 72.6899L171.345 72.7694V73.3154H174.637V72.7694L173.863 72.6899C173.847 71.8418 173.847 68.0729 173.863 67.2407L174.637 67.1612V66.6152H171.345Z" fill="#060707"/>
<path d="M176.614 66.6152L176.577 68.5129H177.431L177.616 67.193H178.73C178.745 68.057 178.745 71.8524 178.73 72.6846L177.86 72.7747V73.3207H181.354V72.7747L180.479 72.6899C180.463 71.8471 180.463 68.0464 180.479 67.1983H181.603L181.789 68.5182H182.631L182.6 66.6205H176.609H176.614V66.6152Z" fill="#060707"/>
<path d="M188.708 66.6152V67.1612L189.418 67.2725L188.236 69.8328L187.08 67.2513L187.849 67.1612V66.6152H184.557V67.1612L185.129 67.2195L186.826 70.6968C186.826 71.5609 186.826 72.128 186.81 72.6846L185.935 72.7747V73.3207H189.429V72.7747L188.549 72.6846C188.538 72.0644 188.533 71.4336 188.533 70.4106L190.07 67.2884L190.807 67.1665V66.6205H188.697H188.708V66.6152Z" fill="#060707"/>
<path d="M197.672 66.6152V67.1612L198.536 67.2513C198.579 70.3205 198.616 71.9955 198.616 72.9444C198.616 73.6971 198.563 74.2007 198.388 74.5028L198.187 74.2537C197.874 73.872 197.603 73.6865 197.254 73.6865C196.803 73.6865 196.458 73.978 196.442 74.4392C196.681 74.8845 197.11 75.0859 197.672 75.0859C198.6 75.0859 199.422 74.5929 199.819 73.713C200.143 73.0504 200.275 72.1493 200.275 70.7498C200.275 70.7498 200.275 68.0517 200.297 67.246L201.071 67.1665V66.6205H197.672V66.6152Z" fill="#060707"/>
<path d="M206.865 66.5993H205.81L203.732 72.6475L202.91 72.7694V73.3154H205.11V72.7694L204.326 72.6475L204.739 71.37H206.796L207.215 72.6899L206.425 72.796V73.3207H209.569V72.796L208.954 72.7217L206.865 66.5993ZM204.93 70.7763L205.778 68.1737L206.605 70.7763H204.93Z" fill="#060707"/>
<path d="M216.227 72.7217C215.941 72.849 215.655 72.9232 215.363 72.9232C214.282 72.9232 213.364 72.0485 213.364 69.9706C213.364 67.8927 214.324 66.9969 215.411 66.9969C215.665 66.9969 215.899 67.0552 216.142 67.1771L216.434 68.5076H217.213L217.171 66.928C216.567 66.594 215.946 66.4244 215.172 66.4244C213.253 66.4244 211.557 67.5482 211.557 69.9653C211.557 72.3825 213.136 73.5063 215.103 73.5063C215.978 73.5063 216.699 73.2889 217.245 72.9868L217.288 71.4177H216.508L216.227 72.7217Z" fill="#060707"/>
<path d="M223.496 68.8999L224.859 67.2884L225.818 67.1665V66.6205H223.459V67.1665L224.122 67.2937L221.848 70.1084V69.7798C221.848 68.9264 221.848 68.0782 221.869 67.246L222.643 67.1612V66.6152H219.425V67.1612L220.188 67.2407C220.204 68.0835 220.204 71.8577 220.188 72.6899L219.425 72.7694V73.3154H222.531V72.7694L221.863 72.6899C221.853 72.0697 221.848 71.4548 221.848 70.8559L222.42 70.1774L223.677 72.7164L223.189 72.7694V73.3154H226.137V72.7694L225.511 72.7005L223.496 68.8999Z" fill="#060707"/>
<path d="M228.098 66.6152V67.1612L228.861 67.2407C228.877 68.0835 228.877 71.8577 228.861 72.6899L228.098 72.7694V73.3154H231.528V72.7694L230.616 72.674C230.6 71.8471 230.595 71.0096 230.595 70.1562H231.724L231.856 71.052H232.45V68.7514H231.856L231.729 69.5519H230.595C230.595 68.7514 230.595 67.9616 230.616 67.1877H232.392L232.593 68.3698H233.447L233.378 66.6099H228.098V66.6152Z" fill="#060707"/>
<path d="M241.208 71.5556C241.049 70.6014 240.721 70.0766 239.575 69.9282C240.938 69.7109 241.394 69.0006 241.394 68.3115C241.394 67.2513 240.503 66.6205 238.897 66.6205H235.578V67.1665L236.342 67.246C236.357 68.0888 236.357 71.863 236.342 72.6952L235.578 72.7747V73.3207H238.865V72.7747L238.07 72.6899C238.054 71.8842 238.049 71.0679 238.049 70.2357H238.42C239.029 70.2357 239.284 70.5484 239.385 71.2322L239.575 72.4143C239.676 73.2094 240.185 73.4586 241.055 73.4586C241.521 73.4586 241.685 73.4267 242.173 73.3101V72.7641L241.405 72.6793L241.208 71.545V71.5556ZM238.049 69.6685C238.049 68.8203 238.049 68.004 238.065 67.2036H238.483C239.316 67.2036 239.761 67.6012 239.761 68.4175C239.761 69.0748 239.454 69.6685 238.436 69.6685H238.049Z" fill="#060707"/>
<path d="M248.376 66.6152V67.1612L249.303 67.2407V70.4265C249.303 71.9637 248.757 72.5786 247.84 72.5786C246.87 72.5786 246.388 72.022 246.388 70.4583C246.388 70.4583 246.388 68.0464 246.409 67.246L247.246 67.1612V66.6152H243.917V67.1612L244.654 67.2354C244.67 68.0517 244.675 70.7816 244.675 70.7816C244.675 72.7588 245.773 73.5063 247.278 73.5063C248.964 73.5063 249.971 72.5945 249.971 70.4265V67.2354L250.814 67.1612V66.6152H248.376Z" fill="#060707"/>
<path d="M253.126 66.6152V67.1612L253.889 67.2407C253.905 68.0835 253.905 71.8577 253.889 72.6899L253.126 72.7694V73.3154H256.418V72.7694L255.644 72.6899C255.628 71.8418 255.628 68.0729 255.644 67.2407L256.418 67.1612V66.6152H253.126Z" fill="#060707"/>
<path d="M258.401 66.6152L258.364 68.5129H259.218L259.403 67.193H260.517C260.533 68.057 260.533 71.8524 260.517 72.6846L259.647 72.7747V73.3207H263.141V72.7747L262.266 72.6899C262.25 71.8471 262.25 68.0464 262.266 67.1983H263.39L263.576 68.5182H264.419L264.387 66.6205H258.396H258.401V66.6152Z" fill="#060707"/>
<path d="M273.139 66.6152H270.366V67.1612L271.13 67.2407C271.146 68.0835 271.146 71.8577 271.13 72.6899L270.366 72.7694V73.3154H273.796V72.7694L272.879 72.674C272.869 71.9902 272.863 71.3329 272.863 70.7551H273.149C275.366 70.7551 276.113 69.7957 276.113 68.6295C276.113 67.4633 275.27 66.6152 273.139 66.6152ZM273.16 70.1827H272.863V69.7798C272.863 68.9105 272.863 68.0517 272.884 67.2036H273.123C274.014 67.2036 274.512 67.686 274.512 68.6242C274.512 69.5625 274.067 70.1827 273.165 70.1827H273.16Z" fill="#060707"/>
<path d="M283.684 71.5556C283.525 70.6014 283.197 70.0766 282.046 69.9282C283.409 69.7109 283.865 69.0006 283.865 68.3115C283.865 67.2513 282.974 66.6205 281.368 66.6205H278.049V67.1665L278.812 67.246C278.828 68.0888 278.828 71.863 278.812 72.6952L278.049 72.7747V73.3207H281.336V72.7747L280.541 72.6899C280.525 71.8842 280.519 71.0679 280.519 70.2357H280.89C281.5 70.2357 281.755 70.5484 281.855 71.2322L282.046 72.4143C282.147 73.2094 282.656 73.4586 283.525 73.4586C283.992 73.4586 284.156 73.4267 284.644 73.3101V72.7641L283.875 72.6793L283.679 71.545V71.5556H283.684ZM280.525 69.6685C280.525 68.8203 280.525 68.004 280.541 67.2036H280.959C281.792 67.2036 282.237 67.6012 282.237 68.4175C282.237 69.0748 281.93 69.6685 280.912 69.6685H280.525Z" fill="#060707"/>
<path d="M289.675 66.4244C288 66.4244 286.436 67.6118 286.436 69.9653C286.436 72.3189 287.989 73.5063 289.675 73.5063C291.361 73.5063 292.914 72.3189 292.914 69.9653C292.914 67.6118 291.35 66.4244 289.675 66.4244ZM289.675 72.9179C288.646 72.9179 288.243 71.6616 288.243 69.9653C288.243 68.2691 288.652 67.0075 289.675 67.0075C290.698 67.0075 291.106 68.2797 291.106 69.9653C291.106 71.651 290.703 72.9179 289.675 72.9179Z" fill="#060707"/>
<path d="M298.21 66.6152H295.178V67.1612L295.941 67.2407C295.957 68.0835 295.957 71.8577 295.941 72.6899L295.178 72.7694V73.3154H298.03C300.262 73.3154 301.699 72.075 301.699 69.9441C301.699 67.8132 300.389 66.6099 298.215 66.6099H298.21V66.6152ZM298.035 72.7323H297.701C297.685 71.8736 297.685 68.0464 297.701 67.2036H298.056C299.207 67.2036 299.928 68.1684 299.928 69.9653C299.928 71.7623 299.207 72.7376 298.035 72.7376V72.7323Z" fill="#060707"/>
<path d="M308.188 66.6152V67.1612L309.116 67.2407V70.4265C309.116 71.9637 308.57 72.5786 307.653 72.5786C306.682 72.5786 306.2 72.022 306.2 70.4583C306.2 70.4583 306.2 68.0464 306.221 67.246L307.059 67.1612V66.6152H303.729V67.1612L304.466 67.2354C304.482 68.0517 304.488 70.7816 304.488 70.7816C304.488 72.7588 305.585 73.5063 307.091 73.5063C308.777 73.5063 309.784 72.5945 309.784 70.4265V67.2354L310.627 67.1612V66.6152H308.188Z" fill="#060707"/>
<path d="M317.625 72.7217C317.338 72.849 317.052 72.9232 316.761 72.9232C315.679 72.9232 314.762 72.0485 314.762 69.9706C314.762 67.8927 315.722 66.9969 316.808 66.9969C317.063 66.9969 317.296 67.0552 317.54 67.1771L317.832 68.5076H318.611L318.568 66.928C317.964 66.594 317.344 66.4244 316.57 66.4244C314.651 66.4244 312.954 67.5482 312.954 69.9653C312.954 72.3825 314.534 73.5063 316.501 73.5063C317.376 73.5063 318.097 73.2889 318.643 72.9868L318.685 71.4177H317.906L317.625 72.7217Z" fill="#060707"/>
<path d="M320.721 66.6152L320.684 68.5129H321.537L321.723 67.193H322.836C322.852 68.0571 322.852 71.8524 322.836 72.6847L321.967 72.7748V73.3208H325.46V72.7748L324.586 72.69C324.57 71.8471 324.57 68.0465 324.586 67.1983H325.709L325.895 68.5182H326.738L326.706 66.6205H320.715H320.721V66.6152Z" fill="#060707"/>
<path d="M331.965 69.2709L331.487 69.0536C330.883 68.7832 330.56 68.5023 330.56 67.9616C330.56 67.4209 331.031 67.034 331.609 67.034C331.858 67.034 332.076 67.0817 332.299 67.1771L332.495 68.3804H333.433L333.518 66.9492C333.02 66.6205 332.32 66.4297 331.588 66.4297C330.04 66.4297 329.054 67.1718 329.054 68.3963C329.054 69.5253 329.748 70.1349 330.947 70.6809L331.376 70.8771C331.991 71.1527 332.256 71.3965 332.256 71.9319C332.256 72.4673 331.864 72.902 331.137 72.902C330.756 72.902 330.454 72.8383 330.135 72.7164L329.934 71.4548H328.985L328.927 72.9709C329.515 73.3313 330.379 73.5063 331.143 73.5063C332.887 73.5063 333.809 72.6528 333.809 71.4495C333.809 70.4159 333.274 69.854 331.97 69.2656L331.965 69.2709Z" fill="#060707"/>
<path d="M391.442 29.2869C392.042 29.2869 392.625 29.4407 393.192 29.7481C393.754 30.0503 394.215 30.5061 394.523 31.0627C394.841 31.6352 395 32.2289 395 32.8491C395 33.4693 394.841 34.0524 394.528 34.6196C394.226 35.1761 393.77 35.632 393.213 35.9395C392.646 36.2522 392.057 36.4112 391.442 36.4112C390.828 36.4112 390.234 36.2522 389.672 35.9395C389.115 35.6373 388.654 35.1761 388.352 34.6196C388.039 34.0524 387.88 33.464 387.88 32.8491C387.88 32.2342 388.039 31.6352 388.357 31.0627C388.675 30.4902 389.12 30.0503 389.688 29.7481C390.255 29.4407 390.838 29.2869 391.437 29.2869H391.442ZM391.442 29.8753C390.944 29.8753 390.456 30.0026 389.985 30.2623C389.513 30.5167 389.142 30.8878 388.871 31.3596C388.606 31.8366 388.468 32.3349 388.468 32.8491C388.468 33.3633 388.601 33.8509 388.861 34.3227C389.126 34.7945 389.492 35.1602 389.963 35.42C390.435 35.685 390.928 35.8122 391.442 35.8122C391.957 35.8122 392.45 35.6797 392.922 35.42C393.393 35.1549 393.759 34.7892 394.019 34.3227C394.279 33.8509 394.411 33.3633 394.411 32.8491C394.411 32.3349 394.279 31.8366 394.014 31.3596C393.749 30.8825 393.378 30.5167 392.9 30.2623C392.423 30.0079 391.941 29.8753 391.442 29.8753ZM389.884 34.8157V30.9832H391.199C391.649 30.9832 391.973 31.0203 392.174 31.0892C392.376 31.1581 392.535 31.2853 392.657 31.4603C392.778 31.6352 392.837 31.826 392.837 32.0222C392.837 32.3031 392.736 32.5469 392.535 32.7537C392.333 32.9604 392.068 33.077 391.739 33.1035C391.877 33.1618 391.983 33.2254 392.063 33.305C392.217 33.4534 392.407 33.7078 392.63 34.063L393.097 34.8157H392.344L392.004 34.2114C391.739 33.7343 391.522 33.4375 391.358 33.3209C391.246 33.2307 391.077 33.1883 390.865 33.1883H390.499V34.8157H389.879H389.884ZM390.499 32.6636H391.252C391.612 32.6636 391.856 32.6105 391.983 32.5045C392.11 32.3985 392.179 32.2554 392.179 32.0805C392.179 31.9691 392.148 31.8684 392.084 31.7783C392.02 31.6882 391.936 31.6193 391.824 31.5769C391.713 31.5345 391.506 31.5133 391.204 31.5133H390.499V32.6689V32.6636Z" fill="black"/>
<defs>
<linearGradient id="paint0_linear_346_2" x1="59.0162" y1="7.74448" x2="50.4702" y2="7.74448" gradientUnits="userSpaceOnUse">
<stop stop-color="#FAE52D"/>
<stop offset="1" stop-color="#F8B33E"/>
</linearGradient>
<linearGradient id="paint1_linear_346_2" x1="66.7458" y1="11.2907" x2="56.1162" y2="11.2907" gradientUnits="userSpaceOnUse">
<stop stop-color="#FAE52D"/>
<stop offset="1" stop-color="#F8B33E"/>
</linearGradient>
<linearGradient id="paint2_linear_346_2" x1="65.3089" y1="11.4603" x2="58.8994" y2="11.4603" gradientUnits="userSpaceOnUse">
<stop stop-color="#FAE52D"/>
<stop offset="1" stop-color="#F8B33E"/>
</linearGradient>
<linearGradient id="paint3_linear_346_2" x1="60.3309" y1="3.91199" x2="56.9379" y2="3.91199" gradientUnits="userSpaceOnUse">
<stop stop-color="#FAE52D"/>
<stop offset="1" stop-color="#F8B33E"/>
</linearGradient>
<linearGradient id="paint4_linear_346_2" x1="68.3785" y1="8.31167" x2="52.7496" y2="8.31167" gradientUnits="userSpaceOnUse">
<stop stop-color="#FAE52D"/>
<stop offset="1" stop-color="#F8B33E"/>
</linearGradient>
<linearGradient id="paint5_linear_346_2" x1="68.103" y1="10.4956" x2="53.0732" y2="10.4956" gradientUnits="userSpaceOnUse">
<stop stop-color="#FAE52D"/>
<stop offset="1" stop-color="#F8B33E"/>
</linearGradient>
<linearGradient id="paint6_linear_346_2" x1="63.973" y1="13.2785" x2="58.1679" y2="13.2785" gradientUnits="userSpaceOnUse">
<stop stop-color="#FAE52D"/>
<stop offset="1" stop-color="#F8B33E"/>
</linearGradient>
</defs>
</svg>
