<?xml version="1.0" encoding="UTF-8"?>
<svg data-bbox="0.007 0 765.443 426.55" viewBox="0 0 765.45 426.56" xmlns="http://www.w3.org/2000/svg" data-type="shape">
    <g>
        <path d="M496.04 180.34c2.65 3.17 2.77 5.7.37 9.07-.45.64-.66 1.16-.38 1.86.54 1.35.34 2.54-.86 3.43-.98.73-.91 1.53-.37 2.46.45.76.8 1.7.45 2.46-1.12 2.45-2.04 4.86-1.2 7.61.08.26-.41.99-.62.98-2.87-.06-1.97 1.68-1.65 3.24.39 1.91-.09 3.53-1.72 4.78-.5.38-1.8.89-.93 1.7 1.58 1.47.47 2.5-.37 3.46-.8.91-1.16 1.87-1.16 3.02 0 2.14-.86 4.01-1.93 5.77-1.29 2.13-2.35 4.16-3.02 6.72-.63 2.41-.77 4.56-.7 6.92.03 1.17-.19 2.58-1.46 3.06-2.63 1-3.41 3.4-4.48 5.57-.28.56-.48 1.29-1.04 1.31-2.73.12-3.84 2.86-6.13 3.67-1.12.39-.77 1.44-.74 2.22.07 1.58-.32 2.69-1.84 3.59-1.57.93-2.33 2.72-3.02 4.37-.64 1.54-1.58 2.02-2.99 1.25-1.53-.84-2.26-.41-2.38 1.23-.25 3.3-1.79 5.28-5.29 5.37-.64.02-1.14.41-1.53.87-2.62 3.13-6.24 3.67-9.96 3.71-1.37.01-2.35.13-2.66 1.63-.52 2.5-3.42 1.64-4.56 3.22-1.81 2.5-4.84-.1-6.98 1.87-2.45 2.25-4.99.27-7.61-.46-3.72-1.04-7.63-2.41-11.53-.23-.8.45-1.95.67-2.48-.45-.7-1.49-1.56-1.23-2.63-.54-1.4.9-3 1.25-4.61 1.5-1.58.25-3.4.2-4.2-1.24-1.18-2.12-2.98-2.01-4.61-1.53-2.91.85-5.02-.91-7.05-2.11-1.27-.75-2.35-1.3-3.66-1.09-3.09.49-2.43-2.56-3.54-3.84-.6-.69.14-2.47 1.35-3.25 1.65-1.07 3.24-2.2 4.48-3.76.36-.45.86-.62 1.37-.57 3.65.35 5.13-2.34 6.53-4.87 1.1-1.99 2.37-3.61 4.35-4.82 2.42-1.47 4.13-3.49 3.96-6.66-.15-2.91.42-5.47 3.18-7.32 1.76-1.18 2.18-3.44 2.44-5.5.2-1.59.76-2.94 1.76-4.18 1.93-2.4 3.28-5.01 2.54-8.26-.13-.59-.08-1.18.34-1.7 1.46-1.83 1.39-3.97 1.19-6.12-.14-1.41.1-2.47 1.24-3.63 2.96-3 2.22-6.84 1.55-10.44s-1.79-7.12-2.57-10.71c-.61-2.78-.78-5.58.14-8.37.68-2.06.82-4.35-1.04-5.68-1.46-1.03-1.44-2.16-1.39-3.48.12-3.5.39-7 .46-10.51.08-3.93-1.16-5.59-4.96-6.23-2.1-.35-2.38-1.16-1.99-3.1.97-4.83-.6-6.86-5.45-7.02-2.18-.07-3.13-.52-3.25-3-.22-4.51-2.51-6.58-6.77-6.86-5.15-.34-6.93-1.58-8.21-6.78-.63-2.57-1.8-3.36-4.21-3-4.43.65-7.9-.58-10.44-4.62-1.56-2.48-4.4-3.52-7.35-3.64-3.25-.14-6.51-.07-9.76-.09-2.1-.01-4.01.14-5.87-1.63-1.84-1.75-4.17-.89-6.01.77-.93.84-2.03 2.24-3.14.69-.99-1.37-.05-2.58 1.5-3.13 1.04-.37 1.25-.97.76-1.98-.85-1.75-.36-2.86 1.7-2.91 1.52-.03 1.56-1.01 1.55-2.1-.01-1.83-.12-3.59 2.36-4.15 1.22-.28.71-1.22.14-2-2.79-3.82-2.76-3.99 1.32-6.12.99-.52 1.55-1.16 1.13-2.22-.6-1.55.21-1.9 1.44-2.61 1.7-.97 2.71-2.91 4.91-3.41.95-.22.57-1.44.05-2.2-.35-.52-.74-1.43-.11-1.53 2.5-.4 1.49-2.25 1.52-3.51.04-1.66.44-2.7 2.31-2.54 2.47.22 2.77-1.27 2.27-3.09-.48-1.75 0-2.31 1.78-2.19 2.7.19 3.34-1.9 3.94-3.9.24-.8.05-1.84 1.18-2.03 2.07-.36 4.35-.31 5.12-2.92 2.53.5 3.41-1.45 4.63-3.01.45-.57 1.28-.34 1.95-.12 1.7.56 2.95-.14 3.54-1.65.67-1.73 1.97-2.4 3.55-2.98 1.43-.53 2.81-1.25 4.13-2.02.98-.58 1.72-1.75 2.79 0 .44.72 1.26.11 1.7-.44.8-1 1.62-1.99 2.31-3.06.97-1.52 2.02-1.84 3.23-.37 1.18 1.44 2.22 1.14 4.04.86 3.31-.51 6.57-2.24 10.23-.88 2.3.86 4.94 1.1 7.54.75.8-.11 2.08.06 2.25 1.52.22 1.9 1.47 1.96 2.78 1.2 2.21-1.28 3.99-1.54 5.03 1.39.35.98 1.14.94 1.84.27 1.21-1.16 2-2.53 3.82-.2.63.81 3.42 1.05 5.28 1.23 1.29.13 2.42.57 2.86 1.83.69 1.99 1.7 1.44 2.85.53.33-.27.64-.57.96-.85 2.26-1.98 2.97-1.94 4.43.77 1.07 1.98 2.12 3.07 4.36 1.51.85-.59 2.06-.47 2.49.49 1.08 2.39 2.92 2.37 5.2 2.71 3.8.58 5.92 3.61 6.68 7.29.32 1.56.58 2.55 2.46 2.32.91-.11 1.39.5 1.13 1.51-.47 1.81.54 2.3 1.96 1.77 2.13-.8 3.04.18 3.07 2.02.05 3.12 3.56 4.16 3.98 7 .02.16.4.38.6.37 2.25-.08 2.38 1.03 1.65 2.76-.47 1.11-.44 2.07 1.19 2.01.98-.03 1.52.65 1.53 1.42.04 2.25 1.58 2.36 3.16 2.36 1.66 0 2.38.74 2.67 2.37.67 3.68 1.52 7.32 2.29 10.97.1.47.41.68.8.92.83.52 2.46.05 2.54 1.32.13 2.15 1.12 4.23.84 6.3-.17 1.28-.11 2.08.78 2.91.54.5.69 1.24.52 1.91-.28 1.09-.28 1.83 1.14 1.87 1.15.03 1.39.92 1.31 1.82-.13 1.36-.29 2.73-.63 4.04-.4 1.52-.41 2.84.85 4 .36.33.66.86.72 1.34.71 6.32.64 12.6-1.27 18.75-.17.55-.76 1.04-.46 1.67 2.12 4.45.23 8.72-.66 13-.24 1.16-.18 1.85.51 2.74 2.5 3.24 2.34 3.88-1.39 6.22Zm-77.37 10.69c.23.69-.24 1.61.66 2.06 2.53 1.27 4.63 3.17 6.97 4.72.81.54 1.46.49 1.75-.57 1.18-4.35 2.39-8.69 3.51-13.06.16-.64.35-1.83-.94-1.55-2.41.52-4.06-.69-5.8-2.02-1.01-.78-2.22-1.51-3.11.36-1.52 3.2-2.25 6.61-3.04 10.06m4.63-19.04c1.03.03 1.72.09 2.1-.69 1.1-2.24 2.75-4.08 4.25-6.04.67-.87 1.6-2.26-.36-3.09-3.61-1.52-7.2-3.08-10.8-4.63-1.06-.46-1.78-.15-1.69 1 .22 2.7-.94 4.75-2.7 6.62-.75.8-.79 1.82.1 2.48 2.84 2.1 6.13 3.27 9.1 4.36Zm22.28 21.52c.19-.16.62-.37.78-.71 1.8-3.58 3.18-7.33 4.09-11.23.1-.44.13-.93-.33-1.12-2.7-1.09-4.36-3.52-6.66-5.13-1.03-.72-1.75-.98-2.26.56-1.31 3.96-2.69 7.9-4.12 11.82-.52 1.42-.1 1.86 1.32 1.82 2.42-.07 4.26 1.05 5.59 3.02.35.52.69.97 1.58.96ZM394.82 76.6c.07-.97-.57-1.24-1.3-1.17-2.3.23-4.08-.9-5.39-2.48-1.78-2.15-2.76-.89-3.67.59-1.67 2.72-2.34 5.87-3.59 8.78-.28.65-.28 1.37.5 1.78 2.25 1.19 3.76 3.21 5.59 4.89 1.4 1.29 2.43 1.39 3.17-.72.97-2.74 2.15-5.4 3.24-8.1.48-1.19.97-2.38 1.45-3.56Zm36.2 163.57c.05-.8-.29-1.21-.8-1.37-2.34-.76-3.2-2.83-3.87-4.8-.76-2.27-1.9-2.06-3.42-1.05-2.58 1.71-4.53 4.12-6.72 6.27-.61.6-.73 1.38-.25 2.12 1.46 2.25 2.23 4.8 3.28 7.23.62 1.44 1.28 1.85 2.59.57 2.57-2.5 5.26-4.87 7.87-7.32.54-.51.94-1.18 1.31-1.65Zm-23.66-120.53c-2.03-2.6-2.82-5.92-4.59-8.72-.49-.78-1.01-.39-1.46.06-3.01 3.02-6.01 6.04-9.01 9.07-.65.65-.91 1.28.17 1.77 2.52 1.13 3.89 3.21 4.68 5.74.42 1.35 1.29 1.2 2.2.66 3.23-1.92 5.37-4.95 7.76-7.73.15-.17.15-.48.25-.84Zm35.24 106.94c-1.06-.05-1.25.51-1.2 1.15.19 2.41-1.2 4.05-2.83 5.44-1.84 1.57-1.48 2.81.22 4.09 2.33 1.76 4.92 3.03 7.51 4.34 1.09.55 1.79.22 2.4-.63 1.5-2.09 3.34-3.87 5.17-5.66 1.13-1.11.89-1.73-.43-2.48-3.18-1.8-6.27-3.76-9.41-5.63-.5-.3-1.08-.47-1.44-.62Zm32.72-39.62c-.04 1.06-.11 1.8.48 2.09 2.58 1.25 4.48 3.34 6.64 5.13.99.82 1.87.66 2.25-.78 1.1-4.2 2.23-8.4 3.35-12.6.29-1.09-.09-1.75-1.25-1.57-2.37.36-4.12-.8-5.73-2.25-1.19-1.07-2.25-1.02-2.86.4-1.4 3.21-2.38 6.57-2.89 9.59ZM445.46 89.4h.04V83c0-1.08-.22-1.66-1.48-1.06-2.05.98-4.04.83-6.12-.18-1.35-.66-2.49-.53-2.84 1.55-.55 3.33-.31 6.63-.31 9.95 0 .85.4 1.39 1.28 1.66 2.44.74 4.86 1.57 7.29 2.36 1.59.51 2.2-.12 2.15-1.73-.06-2.05-.02-4.09-.02-6.14Zm19.01 73.46c.13-1.25.14-1.91-.43-2.26-2.29-1.42-3.91-3.57-5.92-5.29-1.35-1.16-1.93-.59-2.46.63-1.59 3.68-3.17 7.37-4.71 11.07-.33.78-.67 1.83.74 1.89 2.62.1 4.5 1.48 6.13 3.32.97 1.1 1.75.82 2.5-.17 2.22-2.92 2.9-6.51 4.16-9.19Zm-19.6-7.78h.12v-6.14c0-.95-.3-2.08-1.35-1.44-2.43 1.47-4.6.58-6.84-.22-1.39-.5-2.03-.07-2.3 1.37-.66 3.56-.26 7.14-.28 10.72 0 .68.44 1.15 1.1 1.22 2.58.28 4.91 1.42 7.34 2.2 1.54.49 2.27.17 2.22-1.56-.05-2.05-.01-4.1-.01-6.14Zm40.25 56.55c.02-.74-.49-1.03-1.07-1.25-3.58-1.37-7.17-2.71-10.74-4.11-1.72-.67-2.21.04-2 1.62.29 2.2-.53 4.12-1.95 5.6-1.63 1.7-.95 2.71.64 3.58 2.7 1.48 5.64 2.39 8.6 3.2.77.21 1.53.18 1.88-.79.8-2.2 2.5-3.84 3.72-5.78.41-.65.87-1.27.92-2.07m-104.28-94.76c.84.17 1.31-.03 1.6-.51 1.4-2.35 3.15-4.43 4.85-6.56.7-.88.9-1.9-.46-2.5-3.74-1.64-7.49-3.27-11.23-4.9-.95-.41-1.58-.16-1.47.93.3 2.81-1.04 4.91-2.77 6.88-.76.87-.61 1.73.28 2.44 2.8 2.21 6.2 3.11 9.2 4.22m87.18 11.57c-.77-.07-.91.52-.8 1.16.47 2.58-.48 4.67-2.07 6.6-1.11 1.33-.94 2.43.63 3.34 2.77 1.6 5.79 2.51 8.85 3.34.82.22 1.3.05 1.65-.7 1.13-2.42 2.75-4.52 4.28-6.69.8-1.14.77-2.23-.91-2.75-1.55-.49-3.04-1.14-4.57-1.7-2.32-.86-4.64-1.7-7.07-2.6Zm-39.04 1.81c.07-.89.15-1.58-.59-2.01-2.38-1.4-4.23-3.48-6.4-5.15-.96-.74-1.56-.49-1.94.56-1.45 4.03-2.92 8.04-4.3 12.09-.37 1.08-.03 1.88 1.35 1.77 2.27-.19 3.96.99 5.39 2.51 1.3 1.38 2.06 1 2.96-.38 1.92-2.93 2.52-6.33 3.53-9.39m42.67-40.03c-.11-.21-.21-.55-.43-.8-2.42-2.73-5.56-4.47-8.66-6.26-.55-.32-1.15-.14-1.59.42-1.61 2.02-3.55 3.68-5.5 5.34-.91.78-1.51 1.85-.18 2.77 3.37 2.32 6.78 4.57 10.19 6.85.77.51 1.54.69 1.6-.56.14-2.65 1.74-4.36 3.6-5.94.53-.45 1.02-.92.98-1.82ZM364.2 85.7c.31 3.02-.37 5.64-2.43 7.65-1.54 1.5-1.01 2.44.46 3.42 2 1.33 4.28 2.06 6.44 3.06 2.12.98 3.71 1.01 4.9-1.55.8-1.74 2.22-3.22 3.52-4.68 1.25-1.42.74-2.11-.67-2.92-1.41-.82-2.99-1.15-4.46-1.82-2.44-1.12-4.79-2.57-7.75-3.15Zm61.74-10.66c0-.64-.25-1.16-.74-1.57-2.48-2.1-5.2-3.85-7.99-5.51-.98-.58-1.6-.14-2.18.59-1.45 1.8-3.15 3.34-4.91 4.8-1.49 1.24-1.49 2.34.17 3.44 2.98 1.98 5.96 3.95 8.88 6.01 1.39.98 2.18.79 2.42-.91.31-2.18 1.5-3.77 3.23-4.99.67-.47 1.19-.98 1.12-1.86m16.52 54.32c-.86-.07-1.62.04-1.42 1.02.53 2.63-.77 4.56-2.22 6.51-.98 1.32-.87 2.49.75 3.35 1.97 1.05 4.09 1.69 6.13 2.54 2.58 1.07 4.46 1.08 5.53-1.98.32-.92 1.17-1.66 1.76-2.48 2.64-3.66 2.55-3.95-1.56-5.53-1.11-.43-2.21-.91-3.32-1.33-1.91-.72-3.82-1.42-5.65-2.09Zm22.61-14.77c-.09 1-.11 1.64.44 2.04 2.24 1.61 4.1 3.62 6.09 5.5.89.85 1.76.76 2.31-.66 1.5-3.91 3.12-7.77 4.71-11.65.35-.86.4-1.56-.79-1.57-2.61-.02-4.52-1.35-6.12-3.24-.93-1.11-1.56-.89-2.41.17-2.32 2.9-2.84 6.55-4.23 9.43Zm-29.44-7.08c-.08-.62-.3-.98-.72-1.16-3.91-1.7-7.82-3.42-11.75-5.09-1.1-.47-1.42.25-1.3 1.15.33 2.43-.75 4.27-2.29 5.98-1.31 1.46-1.14 2.77.56 3.81 2.65 1.61 5.6 2.49 8.48 3.54.6.22 1.06.23 1.52-.42 1.62-2.31 3.33-4.54 4.98-6.82.24-.33.38-.74.51-.99Zm-83.77 4.7c-.01.9-.05 1.61.58 1.88 2.5 1.03 4.34 3 6.51 4.49 1.09.74 1.9.65 2.29-.77 1.12-4.03 2.27-8.05 3.39-12.09.3-1.07-.13-1.68-1.29-1.59-2.32.18-4.17-.81-5.8-2.3-1.12-1.02-1.97-.9-2.66.4-1.7 3.22-2.48 6.71-3.03 9.99Zm86.88 148.72c-.02.17-.02.88.57 1.16 2.58 1.2 4.64 3.17 7.01 4.68 1.21.77 1.75.14 2.05-.9 1.15-4.01 2.22-8.05 3.39-12.06.41-1.4-.19-1.68-1.36-1.58-2.29.2-4.18-.71-5.79-2.22-1.4-1.32-2.26-.76-2.92.69-1.41 3.13-2.18 6.45-2.94 10.23Zm-7.55.23c.29-1.06.07-1.65-1.23-1.35-2.12.48-3.88-.31-5.31-1.82-1.59-1.68-2.73-1.32-3.65.64-1.42 3.04-2.03 6.32-2.75 9.56-.13.59-.06 1.22.59 1.56 2.44 1.26 4.54 3.01 6.73 4.64.99.74 1.79.55 2.14-.67 1.18-4.18 2.33-8.37 3.49-12.56Zm-16.61-117.71c.07-1.2-.61-1.59-1.32-1.9-3.51-1.52-7.03-3.01-10.54-4.53-.88-.38-1.56-.42-1.49.79.14 2.59-1.07 4.58-2.67 6.43-1.22 1.42-1.01 2.49.7 3.46 1.49.84 2.98 1.64 4.58 2.26q4.71 1.82 7.6-2.16c1.09-1.5 2.18-3.01 3.15-4.36ZM430 222.91c.86.03 1.33-.04 1.63-.59 1.4-2.56 3.28-4.79 5.05-7.09.72-.94.27-1.51-.7-1.93-3.61-1.56-7.19-3.16-10.79-4.74-1.19-.52-1.93-.43-1.86 1.18.12 2.54-1.01 4.61-2.74 6.36-.86.88-.81 1.56.06 2.37 2.75 2.54 6.43 3.02 9.35 4.44m46.88 11.36c-.29-.33-.46-.68-.73-.79-2.56-1.03-3.68-3.18-4.44-5.61-.48-1.53-1.4-1.54-2.54-.79-2.79 1.86-5.16 4.17-7.24 6.78-.52.65-.75 1.43-.25 2.13 1.51 2.12 2.11 4.63 3.12 6.96.62 1.43 1.33 1.9 2.62.66 2.82-2.72 5.68-5.39 8.51-8.1.35-.34.6-.78.96-1.25Zm-77.22 30.26c.03.83-.15 1.52.41 1.92 2.29 1.62 4.57 3.25 6.94 4.75.67.42 1.61.67 1.98-.65 1.14-4.1 2.38-8.17 3.5-12.27.2-.74.44-1.85-1.11-1.57-2.32.43-4.24-.65-5.8-2.09-1.59-1.48-2.56-.74-3.17.62-1.36 3.04-2.08 6.29-2.76 9.3Zm80.29-102.22c-.09.91-.06 1.47.54 1.88 2.33 1.59 4.64 3.2 6.96 4.8.97.67 1.54.4 1.86-.72 1.19-4.19 2.41-8.37 3.65-12.55.24-.8.11-1.64-.78-1.41-2.83.73-4.76-.79-6.72-2.33-1.11-.87-1.87-.52-2.46.61-1.64 3.15-2.2 6.64-3.04 9.73Zm-26.74-46.61h.03c0-2.14.02-4.27 0-6.41 0-.79-.03-1.71-1.27-1.14-2.26 1.04-4.44.83-6.66-.2-1.29-.6-2.16-.07-2.38 1.36-.51 3.39-.78 6.77-.14 10.19.18.94.41 1.5 1.43 1.79 2.28.66 4.51 1.51 6.78 2.23 1.44.45 2.3.09 2.24-1.66-.08-2.05-.02-4.1-.02-6.15Zm-3.14 91.05c-.03.94-.02 1.5.43 1.82 2.36 1.67 4.71 3.36 7.13 4.93.69.45 1.44.3 1.74-.77 1.14-4.01 2.38-8 3.51-12.02.3-1.09.18-2.13-1.42-1.94-2.31.27-4.13-.76-5.79-2.19-1.04-.9-1.8-1.07-2.58.36-1.76 3.2-2.22 6.76-3.02 9.81M411.06 90.91c.15-.7-.2-1.32-1.38-1.21-2.13.2-3.8-.75-5.32-2.09-1.5-1.33-2.66-1.32-3.51.73-1.21 2.94-2.07 5.97-2.65 9.09-.14.74-.29 1.62.57 2.07 2.52 1.3 4.63 3.19 6.98 4.75.83.55 1.44.37 1.72-.65 1.16-4.11 2.32-8.22 3.59-12.68Zm56.7 90.7c0-1.14-.67-1.34-1.56-1.26-1.62.14-3.03-.3-4.22-1.44-1.26-1.22-2.16-.76-2.69.69-.58 1.6-.9 3.31-1.57 4.86-1.09 2.51-.72 4.25 1.96 5.45 1.28.58 2.45 1.52 3.36 2.69.58.75 1.26.65 1.52-.2 1.11-3.58 2.14-7.19 3.2-10.79"/>
        <path d="M312.36 123.94c3.68 1.74 7.89 1.75 12.22.84 1.45-.31 3.04.59 4.31 1.46 1.67 1.14 2.97.85 4.26-.53 1.52-1.62 3.02-3.35 5.03-.43.48.7 1.6.45 2.45.45 3.77 0 7.55-.13 11.31-.02 3.57.11 6.49 1.19 8.44 4.73.99 1.79 2.83 3.63 5.47 3.64 1.28 0 2.59.38 3.84.2 2.45-.35 3.45.79 4.2 2.95 1.37 3.94 4.03 6.3 8.49 6.67 5.25.43 5.56.89 5.5 6.2-.02 2.41 1.04 3.34 3.29 3.64 1.84.25 4.24-.58 5.4.93 1.14 1.47-.28 3.55-.44 5.38-.32 3.7-.33 3.7 3.33 3.73 3.63.03 4.12.53 4 4.25-.11 3.42-.33 6.84-.42 10.27-.05 1.74.15 3.43 1.84 4.52.78.5 1.16 1.35.86 2.24-1.98 5.99-.15 11.66 1.31 17.38.68 2.64 1.53 5.27 1.4 8.06-.07 1.49-.24 3.02-1.78 3.71-1.96.87-1.89 2.44-1.68 4.11.31 2.5 1.34 5.16-2.1 6.52-.92.36-.26 1.23.06 1.76 1.42 2.33.91 4.52-.66 6.43-1.75 2.13-2.77 4.46-3.11 7.17-.22 1.78-1 3.29-2.83 3.95-.92.33-1.32 1.05-1.54 1.91-.35 1.32-.95 2.66-.95 3.98 0 3.63-1.05 6.24-4.62 8.01-2.15 1.07-2.92 3.92-4.3 5.96-.67.99-1.2 2.27-2.73 1.02-.89-.72-1.3.05-1.87.6-2.2 2.14-4.28 4.44-7.22 5.66-.22.09-.59.27-.58.39.15 3.73-3.57 5.45-4.46 8.73-.73 2.7-2.34 2.99-4.33 1.01-2.02-2.02-4-2.09-6.51-1.04-3.85 1.61-7.45 3.91-11.69 4.5-.42.06-.9.31-1.26.2-4.12-1.32-7.25.79-10.4 2.89-1.13.75-2.26 1.2-3.51.14-.99-.83-1.36-.3-1.74.76-1.26 3.48-2.97 3.93-5.94 1.7-.75-.56-1.53-1.1-2.24-1.72-2.14-1.89-4.29-3.64-7.45-3.35-.81.08-1.76-.16-2.48-.56-2.23-1.24-3.27-.35-4.27 1.73-1.32 2.76-3.34 2.87-5.43.54-1.68-1.86-2.78-4.12-3.93-6.3-.9-1.69-2.09-2.34-3.87-2.37-1.37-.02-2.76-.04-4.09-.3-3.99-.76-5.84-2.76-6.48-6.77-.67-4.21-.72-4.23-5.02-4.41a28 28 0 0 1-4.07-.5c-2.55-.49-3.56-1.9-2.95-4.4.56-2.3.25-3.48-2.5-3.66-2.47-.16-3.75-2.16-4.59-4.33-.33-.86-.38-1.91-1.61-2.06-4.21-.52-4.9-3.89-5.38-7.1-.35-2.35-.72-4.24-3.24-5.28-1.81-.75-1.72-2.65-1.34-4.28.41-1.75 1.02-3.45 1.63-5.14.65-1.79 0-2.73-1.75-3.24-2.88-.84-3.81-2.51-2.22-5.11 2.94-4.81 1.47-8.85-1.6-12.71-1.24-1.56-1.43-2.87-.39-4.61 1.36-2.29 1.76-4.22-1.12-6.25-3.48-2.45-2.31-7.66 1.77-9.6.62-.29 1.32-.4 1.92-.72 1.11-.58 1.42-1.26.01-1.9-.23-.11-.57-.13-.68-.31-.66-1.02-2.49-1.16-2.27-2.79.21-1.51 1.57-1.82 2.74-2.31.78-.33 1.54-.73 2.29-1.13 1.75-.94 2.9-1.66.42-3.45-2.1-1.52-1.11-3.9.49-5.06 2.74-1.98 2.7-4.5 2.69-7.38-.01-4.16 1.2-7.81 4.97-10.37 1.87-1.27 4.24-2.45 4.35-5.34.03-.76.86-.7 1.38-.94 2.73-1.23 5.5-2.38 8.18-3.72 3.03-1.51 3.55-2.67 2.82-5.95-.34-1.55.17-2.22 1.68-2.48 1.87-.32 3.75-.7 5.62-.46 5.36.67 9.61-1.67 13.71-4.65 3.18-2.32 6.48-4.46 10.41-5.33 1-.22 2.02-.31 3.53-.53Zm15.25 155.64c40.45.69 74.15-33.48 74.31-74.35.16-42.14-33.04-75.85-73.98-75.81-41.02.04-74.64 32.76-74.23 76.28.38 40.67 33.18 74.08 73.89 73.88Z"/>
        <path d="M327.65 276.15c-38.7 0-70.15-31.62-70.52-70.48-.18-19.92 7.13-38.38 20.6-51.99 13.27-13.4 31.1-20.79 50.21-20.81 18.72 0 36.29 7.32 49.53 20.62 13.64 13.7 21.11 32.06 21.04 51.73-.15 38.46-32.07 70.94-69.72 70.94h-1.15Zm.37-137.53q-2.205 0-4.41.3c-8.96 1.27-16.18 3.26-22.74 6.27-6.19 2.84-11.63 6.54-16.19 10.98-5.38 5.26-9.23 10.06-12.1 15.12-5.76 10.15-8.72 20.58-9.06 31.88-.26 8.73 1.2 17.25 4.35 25.31 2.99 7.64 6.76 14.03 11.54 19.57 3.59 4.16 6.91 7.82 11.14 10.47 5.47 3.44 11.67 7.33 18.85 9.34 4.19 1.17 8.7 2.31 13.3 2.64 1.86.13 3.71.19 5.55.19 11.02 0 21.2-2.47 30.26-7.35 9.29-5 16.79-11.52 22.29-19.35 4.41-6.28 7.13-11.58 8.83-17.17 2.12-7.03 4.01-13.94 3.71-21.31-.05-1.03-.06-2.05-.08-3.07-.03-2.2-.07-4.39-.39-6.6a69.3 69.3 0 0 0-9.4-26.23 63.2 63.2 0 0 0-13.98-16.1c-3.28-2.69-6.33-4.77-9.32-6.32-6.47-3.35-11.99-5.42-17.38-6.5l-.94-.19c-4.5-.91-9.15-1.86-13.84-1.86Z"/>
        <path d="M313.24 204.8c-.9-7.85 7.78-16.4 14.83-16.22 9.06.24 15.9 7 16.01 16.38.1 8.77-6.93 15.84-15.78 16.01-7.25.14-16.3-7.48-15.06-16.17"/>
        <path d="M361.69 204.41h-5.66c-4.22-.01-5.22-.54-5.92-4.72-.58-3.46-1.43-7.26 1.13-10.35 1.71-2.06 3.94-3.68 6.31-5.01 4.72-2.66 9.47-5.25 14.85-6.41 4.41-.95 9.28 1.07 11.16 5.16 1.4 3.05 3.17 5.93 3.41 9.56.34 5.11-3.35 8.1-7.81 9.68-5.63 1.99-11.53 2.33-17.47 2.09"/>
        <path d="M333.32 232.78c-.22-2.89.52-5.62 1.54-8.25 1.22-3.13 4.28-3.99 6.99-2.01 8.36 6.11 16.22 12.75 21.72 21.72.69 1.13 1.31 2.37 1.63 3.64 1.63 6.36.12 8.22-6.65 9.48-3.47.65-6.7-.4-9.73-2.38-4.99-3.25-9.66-6.83-12.84-11.94-1.92-3.08-2.94-6.54-2.67-10.26Z"/>
        <path d="M373.85 232.21c-6.72.05-11.68-1.07-16.23-3.85-1.28-.78-2.32-1.84-3-3.08-1.83-3.29-4.18-6.19-6.42-9.18-.76-1.02-1.21-2.39-1.44-3.67-.3-1.68-.12-2.64 2.38-2.53 7.84.36 15.64 1.17 23.46 1.74 4.16.3 8.32.64 12.48 1.03 3.98.38 5.19 2.69 4.14 6.74-.91 3.48-2.37 6.39-5.12 8.86-3.41 3.07-7.39 3.81-10.24 3.93Z"/>
        <path d="M328.2 238.78c-.4 4.4.48 8.94 1.68 13.54 1.15 4.41.62 7.58-3.15 9.91-2.57 1.58-5.45 1.23-7.95.57-9.54-2.51-13.34-15.32-9.86-22.06.8-1.54 2.05-2.45 3.19-3.55 2.89-2.78 5.05-6.24 8.22-8.76 1.58-1.26 3.13-3.14 5.33-2.2 2.37 1.01 2.31 3.61 2.5 5.78.18 2.13.04 4.28.04 6.77"/>
        <path d="M300.78 219.32c6.41 0 8.69 1.45 9.22 4.99.29 2-.37 3.98-1.16 5.69-3.29 7.19-7.7 13.35-15.65 16.11-4.21 1.46-9.28-.24-12.34-4.42-2.19-3-1.77-8.33.27-11.58 1.61-2.56 3.34-4.99 5.82-6.55 4.67-2.95 10.02-3.86 13.85-4.24Z"/>
        <path d="M336.4 179.5c.71-6.5 2.01-12.99 7.17-18.04 1.51-1.48 2.9-3.21 3.86-5.07.79-1.53 1.8-1.77 3.24-1.89 6.32-.54 11.2 2.55 15.84 6.22.99.78 2.04 1.49 2.9 2.49 1.51 1.76 1.57 4.97-1.11 6.32-2.25 1.13-4.6 2.08-7.18 2.56-4.18.77-7.87 2.64-10.45 6.31-1.99 2.85-4 5.74-7.78 6.57-4.74 1.05-6.51-.33-6.48-5.48Z"/>
        <path d="M312.27 185.43c-2.17-.18-4.35-.93-5.91-3-1.46-1.92-3.23-3.34-5.52-4.34-4.97-2.16-6.34-6.79-7.13-11.59-.47-2.85-.34-5.67.82-8.47 1.67-4.05 5.19-5.78 8.8-7.04 5.37-1.88 5.75-1.55 6.76 4.06 1.18 6.55 2.91 12.95 4.74 19.32.49 1.7 1.27 3.32 1.91 4.98 1.64 4.25.94 5.61-4.46 6.08Z"/>
        <path d="M278.65 200.17c7.16.39 14.33.68 21.49 1.23 3.76.28 4.75 2.88 2.72 5.62-3.12 4.22-7.61 6.47-11.89 9.02-3.54 2.12-7.21 3.79-11.61 3.34-4.82-.5-8.85-3.05-9.22-6.64-.26-2.54-.73-5.06-.66-7.65.12-4.56.19-4.74 4.79-4.81 1.46-.02 2.91 0 4.37 0v-.1Z"/>
        <path d="M341.54 153.09c.24 1.3-.32 2.64-.92 3.97-2.37 5.27-3.54 10.99-6.16 16.18-2.5 4.95-5.88 6.6-10.68 4.97-4.93-1.68-8.11-6.88-7.36-11.56.56-3.48 2.47-6.13 4.64-8.65 3.9-4.52 8.45-8.11 14.46-9.46 4.08-.91 6.06.5 6.02 4.55"/>
        <path d="M278.25 181.29c-.16-1.77.51-3.5 1.34-5.22 1.03-2.14 1.92-4.35 2.94-6.49.92-1.92 1.99-2.06 3.79-.69 3.44 2.6 4.96 6.57 7.51 9.8.71.9 1.45 1.68 2.41 2.2 3.69 2.03 6.78 4.85 9.7 7.79 1.26 1.27 2.18 3.14 2.64 5.07.46 1.96-1.01 2.73-2.26 3.22-3.54 1.37-7.18 1.85-10.7-.19-1.29-.75-2.7-1.01-4.16-1.1-6.72-.41-13.19-7.35-13.2-14.39Z"/>
        <path d="M428.16 34.17c3.17-5.97 14.11-13.31 14.12-13.57 3.23-3.42 7.03-6.38 8.8-10.97.74-3.04 1.23-6.06-.18-9.63-2.18 4.26-4.38 7.8-7.1 10.99-2.81 3.29-6.01 6.18-9.23 9.05-2.66 2.38-5.46 4.62-7.95 7.17-7.55 7.71-6.05 21.78 3 27.31-.32-1.97-.66-3.78-.89-5.6-.61-4.89-3.27-9.67-.57-14.74Z"/>
        <path d="M477.79 27.71c-5.41 2.41-11.31 3.13-16.92 4.86-3.17.98-6.33 1.93-9.28 3.49-6.31 3.31-9.6 8.54-9.98 15.63 2.13-.29 4.84 1.02 5.9-2.17.63-4.51 3.39-7.49 7.15-9.63 5.98-3.39 12.6-4.52 19.31-5.29 1.29-.64 2.7-1.19 3.56-2.4.98-1.38 2.55-2.86.26-4.48Z"/>
        <path d="M459.73 39.32c-2.97 1.16-5.67 2.67-8.33 5.41 6.4.78 11.2-3.13 16.72-3.41 2.6-1.14 6.07-1.39 5.8-5.54-4.69 1.32-9.6 1.76-14.18 3.54Z"/>
        <path d="M444.49 20.69c.77 0 1.53.01 2.3.02 2.48-1.37 5.24-1.81 7.97-2.34 2.48-4.07 2.21-7.4-1.05-11.52-.35 1.01-.66 1.92-.98 2.83-1.2 4.83-4.57 8.02-8.24 11.01"/>
        <path d="M431.89 50.24c.68-.45 1.63-.97 1.96-1.87 1.06-2.6.85-5.15 1.2-7.62.94-6.77 5.19-10.92 11.28-13.45 5.97-2.48 12.4-3.01 18.63-4.41 5.46-1.23 10.65-2.94 14.94-6.72.38-.37.76-.73 1.13-1.1 1.48-2.01 3.45-3.76 3.68-7.05-7.75 5.51-16.16 8.62-24.85 10.87-6.46 1.37-10.48 2.5-12.84 3.26l-.22.03c-.25.1-.51.2-.76.3-1.35.47-1.88.73-1.88.73-.72.28-1.43.57-2.14.88-5.01 2.18-9.14 5.38-11.06 10.66-1.87 5.16-1.16 10.23-.38 15.48 0 0 .62.45 1.31 0Z"/>
        <path d="M481.99 16.08c-.64.65-1.27 1.3-1.91 1.95-2.6 3.8-6.94 4.43-10.83 5.56-5.54 1.6-11.27 2.53-16.9 3.79-9.44 2.12-15.97 7.39-15.83 17.81 0 .26 0 .51-.04.76 0 0 .69 2.8-5.58 6.45v-.07c.26 1.9.5 3.82.59 5.79 1.91-1.47 3.1-2.52 4.42-3.38s2.77-1.54 4.16-2.3c-.15-8.69 4.16-14.59 11.66-18.4 6.18-3.14 13.05-4.07 19.63-5.92 2.11-.59 4.26-1.03 6.38-1.54 4.41-2.19 6.37-5.37 5.97-9.43-.13-1.32-.44-1.86-1.73-1.06Z"/>
        <path d="M468.99 42.44c-3 .94-9.24 2.8-9.24 2.8-1.96.4-3.93.98-5.85.85-2.8-.19-4.35.73-5.09 3.31-.04 1.21.58 1.74 1.74 1.53 3.19-.58 6.52-.74 9.35-2.54 1.22-.63 6.72-4.05 9.24-5.62.18-.11.05-.39-.15-.33"/>
        <path d="M13.21 316.67v6.14l9.7 1c.46 34.4.89 53.19.89 63.8 0 8.45-.61 14.06-2.54 17.45l-2.29-2.8c-3.53-4.3-6.51-6.37-10.44-6.37-2.78 0-5.21 1-6.85 2.77-2.55 2.74-2.09 7 .73 9.46 2.72 2.37 6.39 3.46 10.8 3.46 10.4 0 19.59-5.52 24.08-15.39 3.62-7.4 5.09-17.52 5.09-33.22 0 0 0-30.28.18-39.28l8.71-.88v-6.14z"/>
        <path d="M107.35 385.31c-1.64 0-2.58-1.09-2.58-3.35v-25.65c0-15.32-5.8-21.52-20.47-21.52s-23.83 5.26-25.87 13.29c-.56 2.2-.14 4.6 1.43 6.24 1.37 1.43 3.37 2.16 5.86 2.16 4.41 0 8.1-3.07 8.39-10.68l.52-4.97c1.12-.12 2.14-.16 3.14-.16 7.3 0 9.27 2.99 9.27 13.13v3.74c-3.23.85-6.38 1.72-8.7 2.4-17.64 5.11-22.14 10.83-22.14 18.97 0 9.41 6.15 14.63 15 14.63 7.81 0 11.43-3.13 16.45-8.4 1.64 5.27 5.74 8.31 12.44 8.31s11.02-2.39 13.76-8.64l-3.03-2.02c-1.34 1.9-2.27 2.52-3.47 2.52m-27.38-1.01c-3.86 0-6.87-2.65-6.87-8.38 0-5.38 3.37-9.23 8.55-11.42 1.39-.64 3.28-1.3 5.39-1.96v18.59c-3.28 2.35-4.99 3.17-7.06 3.17Z"/>
        <path d="M148.68 340.68c.74 0 1.45.04 2.15.11l.74 5.78c.55 8.06 4.27 10.84 8.78 10.84 2.73 0 4.7-.83 6.07-2.6 1.37-1.76 1.7-4.11 1.1-6.26-2.17-7.77-10.06-13.76-20.84-13.76-17.08 0-30.89 10.83-30.89 29.53s12.89 29.22 28.48 29.22c10.83 0 19.06-4.44 23.47-13.76l-3.98-3.52c-3.3 3.82-7.4 6.36-12.88 6.36-9.6 0-15.94-7.23-15.94-20.4 0-15.46 7.17-21.54 13.74-21.54"/>
        <path d="m214.54 352.61 10.21-9.56 10.23-1.43v-5.09h-26.7v5.09l7.81 1.35-18.52 18.1.46-51.16-1.85-1.16-23.94 5.15v4.83l7.1 1.14s-.05 59.62-.16 65.26l-6.37 1.36v5.32h31.02v-5.32l-6.11-1.21c-.1-5.19-.15-11.74-.16-16.78l4.31-4.03 12.81 27.34h23.35v-5.32l-7.35-1.8-16.15-32.08Z"/>
        <path d="M267.27 316.36c.48-.79 1.12-1.65 1.9-2.46l.96 1.34c3.16 5.77 6.42 8.15 10.27 8.15 2.81 0 4.98-.98 6.38-2.59 2.38-2.73 1.96-6.85-.54-9.47-2.62-2.73-6.86-3.74-11.33-3.74-6.55 0-13.12 2.01-19.12 7.55-4.42 4.12-8.1 9.98-9.5 21.44l-7.65.97v6.82h7.38s-.06 35.03-.18 40.83l-6.34 1.29v5.32h33.73v-5.32l-8.81-1.87c-.11-5.61-.17-40.24-.17-40.24h11.99v-7.84h-12.27c-.28-9.32.56-15.65 3.31-20.16Z"/>
        <path d="M318.52 334.79c-5.75 0-12.3 4.97-15.42 14.91l-1.02-13.68-1.96-1.23-22.57 7.61v4.5l7 1.03c.23 4.57.34 6.88.34 13.17 0 0-.05 18.48-.16 24.08l-6.27 1.31v5.32h33.89v-5.32l-9.08-1.9c-.1-5.49-.15-24.42-.15-24.42 1.27-5.6 4.3-10.64 7.63-13.88l.74.97c2.72 3.61 5.39 5.3 8.84 5.3s5.93-1.76 7.24-4.97c1.15-2.84.94-6.13-.75-8.69-1.82-2.76-4.83-4.11-8.3-4.11"/>
        <path d="m388.02 336.65-1.8-1.23-22.76 3.71v4.42l6.22 1.44-.37 32.27c-3.07 2.98-6.72 5.22-9.86 5.22-3.9 0-6.21-2.31-6.21-9.43l.57-36.4-1.8-1.23-23.32 3.3v4.83l6.55 1.46-.39 27.94c-.2 15.1 6.35 20.59 16.16 20.59 7.34 0 13.58-3.64 18.55-10.08l.67 9.59 23.44-1.16v-5.32l-5.99-1.26.34-48.65Z"/>
        <path d="m422.44 336.02-1.96-1.23-23.95 7.61v4.5l7.07 1.03c.23 4.57.29 31.64.19 37.24l-6.15 1.33v5.32h30.35v-5.32l-5.71-1.18c-.11-5.62.18-49.29.18-49.29Z"/>
        <path d="M412.82 326.32c5.39 0 9.69-3.8 9.69-9.1s-4.31-9.1-9.69-9.1-9.69 3.77-9.69 9.1 4.31 9.1 9.69 9.1"/>
        <path d="M461.1 384.2c-3.39 0-5.83-2.43-5.83-7.8v-32.02h11.99v-7.84h-11.93l.2-16.05h-11.67l-5.8 15.99-8.39 1.09v6.82h7.38s-.11 29.3-.11 33.28c0 11.28 6.07 15.89 16.44 15.89 8.36 0 13.71-3.33 16.73-9.13l-2.8-2.76c-2.23 1.68-4.11 2.54-6.21 2.54Z"/>
        <path d="M542.76 354.78H532.6v6.14l10.32 1.33c.12 6.62.18 24.75.18 24.75-1.34.28-2.72.44-4.28.44-12.64 0-22.73-10.65-22.73-33.37S526.63 321 539.01 321c2.75 0 5.43.51 8.22 1.7l3.29 14.91h8.87l-.46-17.82c-6.65-3.53-14.65-5.24-22.16-5.24-25.94 0-40.95 15.47-40.95 39.53s16.05 39.86 39.58 39.86c10.15 0 17.93-2.14 25.9-6.67 0 0 .06-18.72.19-25.55l5.94-.8v-6.14h-24.69Z"/>
        <path d="m629.46 336.65-1.8-1.23-22.76 3.71v4.42l6.22 1.44-.37 32.27c-3.07 2.98-6.72 5.22-9.86 5.22-3.9 0-6.21-2.31-6.21-9.43l.57-36.4-1.8-1.23-23.32 3.3v4.83l6.55 1.46-.39 27.94c-.2 15.1 6.35 20.59 16.16 20.59 7.34 0 13.58-3.64 18.55-10.08l.67 9.59 23.44-1.16v-5.32l-5.99-1.26.34-48.65Z"/>
        <path d="M674.72 336.53v4.99l7.57 1.36-10.91 30.92-11.16-30.94 7.72-1.39v-4.94h-32.58v4.99l5.38.93 22.83 53.72-.02.06c-1.82 5.18-4.54 9.71-7.78 13.11l-.76-1.11c-3.09-4.49-6.78-5.3-9.83-5.3-2.14 0-4.16.53-5.8 1.62-4.02 2.69-4.15 8.42-.4 11.48 2.18 1.78 5.25 2.88 8.56 2.88 10.62 0 15.78-7.78 21.42-22.43l20.71-53.81 6.65-1.16v-4.99h-21.59Z"/>
        <path d="m728.81 356.81-5.58-1.59c-7.86-2.36-9.56-4.56-9.56-7.72 0-4.14 3.41-6.41 8.52-6.41 2.58 0 4.5.28 6.28.89l2.31 9.96h9.18l.79-12.54c-5.91-2.97-11.37-4.61-18.13-4.61-15.42 0-23.88 8.16-23.88 18.7 0 8.6 4.99 14.47 13.84 17.06l6.17 1.78c7.54 2.22 9.65 4.57 9.65 8.17 0 4.6-3.62 6.74-10.2 6.74-3.15 0-5.85-.58-8.56-1.67l-1.92-11.32h-9.2l-.28 14.03c6.02 3.52 12.42 5.25 19.9 5.25 16.12 0 25.87-6.95 25.87-19.05 0-8.49-4.35-14.45-15.21-17.69Z"/>
        <path d="M757.74 320.48c1.3 0 2.56.33 3.8 1 1.23.66 2.2 1.62 2.88 2.85.69 1.24 1.03 2.53 1.03 3.87s-.34 2.61-1.02 3.84-1.63 2.18-2.85 2.86q-1.83 1.02-3.84 1.02c-2.01 0-2.62-.34-3.84-1.02a7.2 7.2 0 0 1-2.86-2.86q-1.02-1.845-1.02-3.84c0-1.995.35-2.63 1.04-3.87a7.1 7.1 0 0 1 2.89-2.85c1.23-.67 2.5-1 3.79-1m0 1.28c-1.08 0-2.14.28-3.17.83-1.03.56-1.83 1.35-2.41 2.38s-.87 2.11-.87 3.23.28 2.18.85 3.2 1.37 1.81 2.39 2.38 2.09.85 3.2.85 2.18-.28 3.2-.85 1.82-1.36 2.38-2.38.85-2.09.85-3.2-.29-2.19-.86-3.23-1.38-1.83-2.41-2.38c-1.03-.56-2.08-.83-3.16-.83Zm-3.39 10.71v-8.31h2.85c.98 0 1.68.08 2.12.23s.78.42 1.04.8.39.79.39 1.22c0 .61-.22 1.14-.65 1.59s-1.01.7-1.72.76c.29.12.53.27.71.44q.495.495 1.23 1.65l1.01 1.63h-1.64l-.74-1.31c-.58-1.03-1.05-1.67-1.4-1.93-.25-.19-.6-.29-1.07-.29h-.79v3.53h-1.34Zm1.34-4.68h1.63c.78 0 1.31-.12 1.59-.35s.42-.54.42-.92c0-.25-.07-.47-.2-.66a1.24 1.24 0 0 0-.57-.43c-.24-.1-.69-.14-1.35-.14h-1.52v2.51Z"/>
        <path d="M58.25 404.96v1.34l1.75.18c.04 1.91.05 3.83.05 5.74h-5.33c0-1.94.01-3.85.05-5.74l1.75-.18v-1.34h-7.89v1.34l1.84.2c.04 2.07.04 11.31 0 13.36l-1.84.2v1.34h7.89v-1.34l-1.76-.18c-.04-2.02-.04-4.07-.04-6.19h5.33c0 2.15 0 4.2-.04 6.19l-1.76.18v1.34h7.89v-1.34l-1.84-.19c-.04-2.07-.04-11.32 0-13.37l1.84-.19v-1.34h-7.89Z"/>
        <path d="M72.25 404.96v1.34l1.88.19c.04 2.07.04 11.32 0 13.36l-1.88.19v1.34h8.07v-1.34l-1.89-.19c-.04-2.07-.04-11.32 0-13.37l1.89-.19v-1.34h-8.07Z"/>
        <path d="M93.47 413.3v1.34l2.26.29c.03 1.45.04 5.41.04 5.41-.29.06-.59.1-.93.1-2.77 0-4.97-2.33-4.97-7.3s2.31-7.23 5.01-7.23c.6 0 1.19.12 1.8.38l.72 3.26h1.94l-.1-3.9c-1.46-.77-3.2-1.15-4.85-1.15-5.67 0-8.96 3.38-8.96 8.65s3.51 8.72 8.66 8.72c2.22 0 3.92-.47 5.67-1.46 0 0 .02-4.1.05-5.59l1.29-.17v-1.34h-7.62Z"/>
        <path d="M115.63 404.96v1.34l1.75.18c.04 1.91.05 3.83.05 5.74h-5.33c0-1.94.01-3.85.05-5.74l1.75-.18v-1.34h-7.89v1.34l1.84.2c.04 2.07.04 11.31 0 13.36l-1.84.2v1.34h7.89v-1.34l-1.76-.18c-.04-2.02-.04-4.07-.04-6.19h5.33c0 2.15 0 4.2-.04 6.19l-1.76.18v1.34h7.89v-1.34l-1.84-.19c-.04-2.07-.04-11.32 0-13.37l1.84-.19v-1.34h-7.89Z"/>
        <path d="M157.18 413.18c0-5.83-3.83-8.68-7.94-8.68s-7.94 2.92-7.94 8.68c0 4.83 2.62 7.61 5.86 8.42.17 2.91 2.17 4.95 5.63 4.95 1.35 0 2.62-.25 3.46-.8l-.55-1.4c-.62.24-1.31.3-1.81.3-1.66 0-2.73-1.13-2.78-3.01 3.34-.76 6.07-3.59 6.07-8.47Zm-7.94 7.24c-2.52 0-3.51-3.09-3.51-7.23s1-7.25 3.51-7.25 3.51 3.12 3.51 7.25-.99 7.23-3.51 7.23"/>
        <path d="M171.72 404.96v1.34l2.27.2v7.81c0 3.77-1.34 5.27-3.59 5.27-2.37 0-3.57-1.37-3.57-5.2 0 0 .01-5.91.05-7.87l2.06-.21v-1.34h-8.16v1.34l1.81.18c.04 2 .05 8.7.05 8.7 0 4.85 2.69 6.68 6.39 6.68 4.14 0 6.6-2.24 6.6-7.55v-7.83l2.07-.19v-1.34h-5.97Z"/>
        <path d="M188.61 404.93h-2.58l-5.1 14.83-2.01.29v1.34h5.39v-1.34l-1.92-.3 1.02-3.13h5.04l1.03 3.23-1.93.26v1.29h7.71v-1.29l-1.52-.18zm-4.74 10.24 2.08-6.38 2.03 6.38z"/>
        <path d="M210.6 419.97h-4.34c-.04-2.08-.03-11.41 0-13.45l2.07-.21v-1.34h-8.25v1.34l1.88.19c.04 2.06.05 11.33 0 13.36l-1.89.2v1.34h12.96l.25-4.9h-2.01l-.7 3.47Z"/>
        <path d="M218.34 404.96v1.34l1.88.19c.04 2.07.04 11.32 0 13.36l-1.88.19v1.34h8.07v-1.34l-1.89-.19c-.04-2.07-.04-11.32 0-13.37l1.89-.19v-1.34h-8.07Z"/>
        <path d="m231.27 404.96-.09 4.65h2.09l.46-3.24h2.73c.04 2.11.04 11.43 0 13.46l-2.13.22v1.34h8.57v-1.34l-2.15-.21c-.04-2.07-.04-11.38 0-13.47h2.75l.46 3.24h2.07l-.08-4.65h-14.69Z"/>
        <path d="M260.9 404.96v1.34l1.74.28-2.89 6.27-2.84-6.33 1.88-.22v-1.34h-8.07v1.34l1.4.14 4.17 8.52c0 2.12 0 3.51-.03 4.87l-2.14.22v1.34h8.57v-1.34l-2.16-.22c-.03-1.53-.03-3.06-.03-5.57l3.77-7.66 1.81-.3v-1.34z"/>
        <path d="M282.88 404.96v1.34l2.12.22c.1 7.52.19 11.63.19 13.95 0 1.85-.14 3.07-.56 3.82l-.5-.61c-.77-.94-1.42-1.39-2.28-1.39-.8 0-1.46.38-1.78 1.02-.26.52-.1 1.13.32 1.54.61.6 1.45.87 2.49.87 2.27 0 4.29-1.21 5.27-3.37.79-1.62 1.11-3.83 1.11-7.27 0 0 .01-6.62.05-8.59l1.9-.19v-1.34h-8.32Z"/>
        <path d="M305.42 404.93h-2.58l-5.1 14.83-2.01.29v1.34h5.39v-1.34l-1.92-.3 1.02-3.13h5.04l1.03 3.23-1.93.26v1.29h7.71v-1.29l-1.51-.18-5.13-15.01Zm-4.74 10.24 2.08-6.38 2.03 6.38z"/>
        <path d="M328.37 419.94c-.7.32-1.4.49-2.12.49-2.65 0-4.9-2.14-4.9-7.23s2.35-7.29 5.02-7.29c.62 0 1.2.14 1.8.44l.71 3.27h1.9l-.1-3.88c-1.48-.81-3.01-1.24-4.9-1.24-4.7 0-8.86 2.76-8.86 8.68s3.87 8.68 8.69 8.68c2.15 0 3.91-.53 5.25-1.27l.1-3.84h-1.9z"/>
        <path d="m346.2 410.57 3.34-3.96 2.35-.3v-1.34h-5.79v1.34l1.63.31-5.58 6.9v-.8c0-2.1.01-4.17.05-6.21l1.9-.2v-1.34h-7.89v1.34l1.88.19c.04 2.07.04 11.32 0 13.36l-1.88.19v1.34h7.62v-1.34l-1.63-.19a228 228 0 0 1-.04-4.5l1.41-1.67 3.09 6.22-1.2.13v1.34h7.23v-1.34l-1.53-.18-4.94-9.31Z"/>
        <path d="M357.48 404.96v1.34l1.88.19c.04 2.07.04 11.32 0 13.36l-1.88.19v1.34h8.41v-1.34l-2.24-.23c-.04-2.03-.05-4.07-.05-6.17h2.77l.33 2.19h1.45v-5.64h-1.45l-.31 1.97h-2.78c0-1.96.01-3.89.05-5.8h4.35l.5 2.9h2.09l-.18-4.31h-12.94Z"/>
        <path d="M389.61 417.07c-.38-2.34-1.19-3.63-4.01-4 3.34-.54 4.46-2.27 4.46-3.96 0-2.6-2.18-4.15-6.12-4.15h-8.14v1.34l1.88.19c.04 2.07.04 11.32 0 13.36l-1.88.19v1.34h8.05v-1.34l-1.95-.2c-.04-1.98-.05-3.98-.05-6.01h.91c1.5 0 2.12.77 2.36 2.45l.47 2.9c.25 1.95 1.5 2.56 3.63 2.56 1.15 0 1.55-.08 2.74-.36v-1.34l-1.88-.2-.48-2.78Zm-7.75-4.62c0-2.08 0-4.08.04-6.04h1.02c2.04 0 3.13.97 3.13 2.98 0 1.61-.76 3.06-3.25 3.06h-.95Z"/>
        <path d="M407.18 404.96v1.34l2.27.2v7.81c0 3.77-1.34 5.27-3.59 5.27-2.37 0-3.57-1.37-3.57-5.2 0 0 .01-5.91.05-7.87l2.06-.21v-1.34h-8.16v1.34l1.81.18c.04 2 .05 8.7.05 8.7 0 4.85 2.69 6.68 6.39 6.68 4.14 0 6.6-2.24 6.6-7.55v-7.83l2.07-.19v-1.34h-5.97Z"/>
        <path d="M418.83 404.96v1.34l1.88.19c.04 2.07.04 11.32 0 13.36l-1.88.19v1.34h8.07v-1.34l-1.89-.19c-.04-2.07-.04-11.32 0-13.37l1.89-.19v-1.34h-8.07Z"/>
        <path d="m431.76 404.96-.09 4.65h2.09l.46-3.24h2.73c.04 2.11.04 11.43 0 13.46l-2.13.22v1.34h8.57v-1.34l-2.15-.21c-.04-2.07-.04-11.38 0-13.47h2.75l.46 3.24h2.07l-.08-4.65h-14.69Z"/>
        <path d="M467.89 404.96h-6.8v1.34l1.88.19c.04 2.07.04 11.32 0 13.36l-1.88.19v1.34h8.41v-1.34l-2.25-.23c-.03-1.67-.04-3.28-.04-4.71h.7c5.43 0 7.27-2.35 7.27-5.21s-2.07-4.94-7.29-4.94Zm.06 8.75h-.73v-.99c0-2.13.01-4.24.05-6.32h.58c2.18 0 3.4 1.18 3.4 3.48s-1.09 3.82-3.3 3.82Z"/>
        <path d="M493.74 417.07c-.38-2.34-1.19-3.63-4.01-4 3.34-.54 4.46-2.27 4.46-3.96 0-2.6-2.18-4.15-6.12-4.15h-8.14v1.34l1.88.19c.04 2.07.04 11.32 0 13.36l-1.88.19v1.34h8.05v-1.34l-1.95-.2c-.04-1.98-.05-3.98-.05-6.01h.91c1.5 0 2.12.77 2.36 2.45l.47 2.9c.25 1.95 1.5 2.56 3.63 2.56 1.15 0 1.55-.08 2.74-.36v-1.34l-1.88-.2-.48-2.78Zm-7.74-4.62c0-2.08 0-4.08.04-6.04h1.02c2.04 0 3.13.97 3.13 2.98 0 1.61-.76 3.06-3.25 3.06h-.95Z"/>
        <path d="M508.43 404.5c-4.11 0-7.94 2.92-7.94 8.68s3.81 8.68 7.94 8.68 7.94-2.92 7.94-8.68-3.83-8.68-7.94-8.68m0 15.92c-2.52 0-3.51-3.09-3.51-7.23s1-7.25 3.51-7.25 3.51 3.12 3.51 7.25-.99 7.23-3.51 7.23"/>
        <path d="M529.36 404.96h-7.44v1.34l1.88.19c.04 2.07.04 11.31 0 13.36l-1.88.19v1.34h6.99c5.47 0 8.99-3.04 8.99-8.27s-3.21-8.17-8.54-8.17Zm-.44 15h-.82c-.04-2.11-.04-11.48 0-13.56h.87c2.82 0 4.59 2.36 4.59 6.77s-1.77 6.79-4.64 6.79"/>
        <path d="M553.82 404.96v1.34l2.27.2v7.81c0 3.77-1.34 5.27-3.59 5.27-2.37 0-3.57-1.37-3.57-5.2 0 0 .01-5.91.05-7.87l2.06-.21v-1.34h-8.16v1.34l1.81.18c.04 2 .05 8.7.05 8.7 0 4.85 2.69 6.68 6.39 6.68 4.14 0 6.6-2.24 6.6-7.55v-7.83l2.07-.19v-1.34h-5.97Z"/>
        <path d="M576.94 419.94c-.7.32-1.4.49-2.12.49-2.65 0-4.9-2.14-4.9-7.23s2.35-7.29 5.02-7.29c.62 0 1.2.14 1.8.44l.71 3.27h1.9l-.1-3.88c-1.48-.81-3.01-1.24-4.9-1.24-4.7 0-8.86 2.76-8.86 8.68s3.87 8.68 8.69 8.68c2.15 0 3.91-.53 5.25-1.27l.1-3.84h-1.9z"/>
        <path d="m584.54 404.96-.09 4.65h2.09l.46-3.24h2.73c.04 2.11.04 11.43 0 13.46l-2.13.22v1.34h8.57v-1.34l-2.15-.21c-.04-2.07-.04-11.38 0-13.47h2.75l.46 3.24h2.07l-.08-4.65h-14.69Z"/>
        <path d="m612.1 411.47-1.17-.54c-1.48-.66-2.27-1.36-2.27-2.68s1.15-2.27 2.58-2.27c.61 0 1.15.12 1.69.35l.47 2.94h2.3l.2-3.51c-1.22-.8-2.94-1.27-4.73-1.27-3.79 0-6.22 1.82-6.22 4.83 0 2.77 1.7 4.26 4.65 5.6l1.06.48c1.51.67 2.16 1.27 2.16 2.59s-.96 2.38-2.74 2.38c-.94 0-1.68-.16-2.45-.45l-.5-3.09h-2.33l-.15 3.72c1.44.89 3.55 1.31 5.43 1.31 4.28 0 6.54-2.09 6.54-5.04 0-2.53-1.31-3.91-4.51-5.35Z"/>
    </g>
</svg>
